<!-- Generator: Adobe Illustrator 18.0.0, SVG Export Plug-In  -->
<svg version="1.1"
	 xmlns="http://www.w3.org/2000/svg" xmlns:xlink="http://www.w3.org/1999/xlink" xmlns:a="http://ns.adobe.com/AdobeSVGViewerExtensions/3.0/"
	 x="0px" y="0px" width="535.1px" height="535.1px" viewBox="0 0 535.1 535.1" enable-background="new 0 0 535.1 535.1"
	 xml:space="preserve">
<defs>
</defs>
<g>
	<path fill="#FFFFFF" d="M500.7,88.1V27.9l20.6,15.5l10.3-13.8L492.1,0l-39.5,29.7l10.3,13.7l20.6-15.5v60.2c0,23.7-19.3,43-43,43
		h-34.4c-27.2,0-50.2,17.2-57.6,43h-12.3l-0.3,17.2H346V218c-4.2-0.6-8.5-1-12.9-1c-20,0-39.2,6.7-55,19c-11.3-12-27.1-19-43.9-19
		c-5.9,0-11.7,0.9-17.2,2.6v-54.2c0-28.4-23.1-51.6-51.6-51.6h-8.6V96.7h-17.2v17.2h-25.8c-28.4,0-51.6,23.1-51.6,51.6v17.2
		c0,9.5-7.7,17.2-17.2,17.2H27.9l15.5-20.6l-13.8-10.3L0,208.4L29.7,248l13.7-10.3L27.9,217h17.2c19,0,34.4-15.4,34.4-34.4v-17.2
		c0-19,15.4-34.4,34.4-34.4h51.6c19,0,34.4,15.4,34.4,34.4v62.5c-3.7,2.6-7.2,5.6-10.3,9.1c-6.5-1.9-13.1-2.8-19.8-2.8
		c-36.9,0-67.5,27.3-72.3,63.2c-30.7,9.1-52.3,37.6-52.3,70.1c0,15.2,4.8,30.1,13.6,42.4c-3.3,8.5-5,17.3-5,26.4
		c0,40.3,32.8,73.1,73.1,73.1c3.3,0,6.4-0.3,9.6-0.7c0.6-0.1,1.2-0.2,1.8-0.3c3.2-0.5,6.3-1.2,9.4-2.1c11.8,7.6,25.4,11.6,39.4,11.6
		c15.8,0,30.8-5,43.2-14.1c13.5,19.6,35.7,31.3,59.9,31.3c22.5,0,43.3-10.2,57.1-27.6c11.3,6.8,24.1,10.4,37.4,10.4
		c40.3,0,73.1-32.8,73.1-73.1c0-8.7-1.5-17.2-4.6-25.3c13.9-13.7,21.8-32.3,21.8-52c0-4.4-0.4-8.7-1.2-12.9h1.2v-17.2h-6.6
		c-8.6-18.9-25.1-33.8-45.6-39.9c-3.8-35.2-27.5-64-59.5-75.2v-31c0-23.7,19.3-43,43-43h34.4C473.7,148.3,500.7,121.3,500.7,88.1
		L500.7,88.1z M406,304.6l0.2,6.8l6.7,1.3c15.5,3.1,28.3,12.6,36.2,25.3v16.5h6.9c1,4.2,1.7,8.5,1.7,12.9c0,13.6-5,26.6-13.8,36.7
		c-12.4-17-31.9-27.4-54.4-28.9l-1.1,16.1c28.6,1.9,51,22.5,52,55.5c-1,29.9-25.6,53.9-55.8,53.9c-12.5,0-24.4-4.1-34.3-11.9
		l-3.4-2.7c-10.6-9.7-17.1-23-18.1-37.6l-17.2,1.1c1.2,18.2,9.1,34.9,21.8,47.4c-10.6,13.2-26.3,20.8-43.4,20.8
		c-21.3,0-40.5-11.9-50-31.1l-5.3-10.7l-8.5,8.4c-10.5,10.5-24.5,16.2-39.4,16.2c-6.8,0-13.4-1.4-19.6-3.7
		c19.6-13.1,32.5-35.4,32.5-60.7c0-1.8-0.2-3.6-0.4-5.4c13.7-2.4,26.5-8.6,36.8-18.1L224.7,400c-8,7.3-17.9,12.1-28.4,13.9
		c-5.8-18-18.2-33.3-35.5-42.4l-8,15.2c18.4,9.7,29.9,28.7,29.9,49.5c0,24.1-15.4,44.7-36.8,52.5c-3,1.1-6.1,1.9-9.2,2.5
		c-0.2,0-0.4,0.1-0.6,0.1c-3.1,0.5-6.1,0.8-9.2,0.8c-30.8,0-55.9-25.1-55.9-55.9c0-8.3,1.8-16.3,5.4-23.9l2.4-5l-3.5-4.2
		c-8.3-10-12.9-22.7-12.9-35.7c0-26.5,18.8-49.6,44.8-54.8l6.6-1.3l0.3-6.7c0.9-18.8,10.9-35,25.6-44.4v17h17.2V253
		c4.1-1,8.5-1.6,12.9-1.6c6.6,0,13.3,1.2,19.7,3.6l6.2,2.3l3.9-5.3c0.1-0.2,0.3-0.3,0.4-0.5v42.8H217v-56.5
		c5.4-2.4,11.2-3.7,17.2-3.7c11.9,0,23.1,5,31.1,13.4c-14.4,16.4-24.7,37.6-24.7,59.6c0,49.8,45.1,90.2,88.1,90.2v-17.2
		c-34.4,0-70.9-32.8-70.9-73.1c0-17.9,7.7-35.3,19.6-48.6l4.9-4.2c13.7-13.1,31.8-20.3,50.4-20.3c4.4,0,9,0.4,13.2,1.2v33.2
		c0,23.7-19.3,43-43,43h-8.6v17.2h8.6c33.2,0,60.2-27,60.2-60.2v-27.9C387.6,251.8,404.9,275.9,406,304.6L406,304.6z M406,304.6"/>
	<rect x="397.5" y="337.4" fill="#FFFFFF" width="25.8" height="17.2"/>
	<rect x="440.5" y="174.1" fill="#FFFFFF" width="25.8" height="17.2"/>
	<path fill="#FFFFFF" d="M307.2,183.1l8.7-14.9c-6.2-3.6-11.5-8.8-15.2-14.9l-14.7,9C291.2,170.8,298.5,178,307.2,183.1L307.2,183.1
		z M307.2,183.1"/>
	<path fill="#FFFFFF" d="M277.2,131.1c0,0.9,0,1.8,0.1,2.7l17.2-1.9l0-26.6h-17.2V131.1z M277.2,131.1"/>
	<rect x="277.2" y="53.7" fill="#FFFFFF" width="17.2" height="25.8"/>
	<path fill="#FFFFFF" d="M495.5,332.1l8.3,15.1c8.8-4.8,16.3-11.8,21.8-20.3l-14.5-9.3C507.1,323.6,501.7,328.6,495.5,332.1
		L495.5,332.1z M495.5,332.1"/>
	<path fill="#FFFFFF" d="M517.9,294.4c0,1,0,2-0.1,3l17.2,1.2c0.1-1.4,0.2-2.8,0.2-4.2v-25.8h-17.2V294.4z M517.9,294.4"/>
	<rect x="388.9" y="174.1" fill="#FFFFFF" width="25.8" height="17.2"/>
	<path fill="#FFFFFF" d="M533,218.6l-16.6,4.5c1,3.6,1.5,7.4,1.5,11.2v8.6h17.2v-8.6C535.1,228.9,534.4,223.7,533,218.6L533,218.6z
		 M533,218.6"/>
	<path fill="#FFFFFF" d="M518.3,192.7c-7-7.3-15.7-12.7-25.2-15.8l-5.2,16.4c6.8,2.2,13,6.1,18,11.3L518.3,192.7z M518.3,192.7"/>
	<path fill="#FFFFFF" d="M277.2,27.9h17.2L315,43.4l10.3-13.7L285.8,0l-39.5,29.7l10.3,13.7L277.2,27.9z M277.2,27.9"/>
	<rect x="139.7" y="45.1" fill="#FFFFFF" width="17.2" height="25.8"/>
	<rect x="139.7" y="199.8" fill="#FFFFFF" width="17.2" height="25.8"/>
	<rect x="139.7" y="148.3" fill="#FFFFFF" width="17.2" height="25.8"/>
	<rect x="139.7" y="303" fill="#FFFFFF" width="17.2" height="25.8"/>
	<path fill="#FFFFFF" d="M148.3,21.5l29.2,21.9l10.3-13.7L148.3,0l-39.5,29.7L119,43.4L148.3,21.5z M148.3,21.5"/>
</g>
</svg>