<!-- Generator: Adobe Illustrator 18.0.0, SVG Export Plug-In  -->
<svg version="1.1"
	 xmlns="http://www.w3.org/2000/svg" xmlns:xlink="http://www.w3.org/1999/xlink" xmlns:a="http://ns.adobe.com/AdobeSVGViewerExtensions/3.0/"
	 x="0px" y="0px" width="164.4px" height="159.5px" viewBox="0 0 164.4 159.5" enable-background="new 0 0 164.4 159.5"
	 xml:space="preserve">
<defs>
</defs>
<path fill="#FFFFFF" d="M135.5,63.2l28.9-16.5L82.2,0L0,46.7l28.9,16.5L0,79.6l28.9,16.5L0,112.5l82.2,47l82.2-47l-28.9-16.4
	l28.9-16.5L135.5,63.2z M82.2,6.9l70.1,39.8L82.2,86.8L12.1,46.7L82.2,6.9z M34.9,66.6l47.3,27l47.3-27l22.8,13l-70.1,40.1
	L12.1,79.6L34.9,66.6z M152.3,112.5l-70.1,40.1l-70.1-40.1l22.8-13l47.3,27l47.3-27L152.3,112.5z M152.3,112.5"/>
</svg>