<!-- Generator: Adobe Illustrator 18.0.0, SVG Export Plug-In  -->
<svg version="1.1"
	 xmlns="http://www.w3.org/2000/svg" xmlns:xlink="http://www.w3.org/1999/xlink" xmlns:a="http://ns.adobe.com/AdobeSVGViewerExtensions/3.0/"
	 x="0px" y="0px" width="69.2px" height="69.2px" viewBox="0 0 69.2 69.2" enable-background="new 0 0 69.2 69.2"
	 xml:space="preserve">
<defs>
</defs>
<g>
	<path fill="#FFFFFF" d="M33.9,34.8c-0.2-3.7-0.4-8.1-0.4-11.4h-0.1c-0.9,3.1-2,6.4-3.3,10.1l-4.7,12.8h-2.6l-4.3-12.6
		c-1.3-3.7-2.3-7.2-3.1-10.3h-0.1c-0.1,3.3-0.3,7.7-0.5,11.7l-0.7,11.4h-3.3L12.8,20h4.4l4.5,12.8c1.1,3.3,2,6.2,2.7,8.9h0.1
		c0.7-2.7,1.6-5.6,2.8-8.9L31.9,20h4.4L38,46.4h-3.3L33.9,34.8z"/>
	<path fill="#FFFFFF" d="M59.1,41.3c0,2,0,3.7,0.2,5.2h-3.1L56,43.3H56c-0.9,1.5-2.9,3.5-6.3,3.5c-3,0-6.6-1.7-6.6-8.3V27.4h3.5V38
		c0,3.6,1.1,6.1,4.2,6.1c2.3,0,3.9-1.6,4.6-3.1c0.2-0.5,0.3-1.1,0.3-1.8V27.4h3.5V41.3z"/>
</g>
<circle fill="none" stroke="#FFFFFF" stroke-width="2.8346" stroke-miterlimit="10" cx="34.6" cy="34.6" r="33.2"/>
</svg>