<!-- Generator: Adobe Illustrator 18.0.0, SVG Export Plug-In  -->
<svg version="1.1"
	 xmlns="http://www.w3.org/2000/svg" xmlns:xlink="http://www.w3.org/1999/xlink" xmlns:a="http://ns.adobe.com/AdobeSVGViewerExtensions/3.0/"
	 x="0px" y="0px" width="141.1px" height="128.2px" viewBox="0 0 141.1 128.2" enable-background="new 0 0 141.1 128.2"
	 xml:space="preserve">
<defs>
</defs>
<g>
	<g>
		<defs>
			<rect id="SVGID_1_" x="0" y="0" width="141.1" height="128.2"/>
		</defs>
		<clipPath id="SVGID_2_">
			<use xlink:href="#SVGID_1_"  overflow="visible"/>
		</clipPath>
		<path clip-path="url(#SVGID_2_)" d="M70.3,128.2c-22.8,0-42-17.5-44-40.1C9.4,80.8-0.8,63.5,0.1,43.6c1-23.1,19.2-41.8,42.3-43.5
			C43.5,0,44.5,0,45.5,0c3.5,0,6.2,0.6,9.4,1.5C64.9,4,75.6,4,86,1.4c4.8-1.2,9.7-1.6,14.7-1.3c11,0.8,21,5.7,28.2,13.8
			c7,7.9,11.2,18.4,11.7,29.7c0.9,19.9-9.4,37.2-26.2,44.4C112.3,110.6,93.2,128.2,70.3,128.2L70.3,128.2z M29.9,86.9
			c1.5,21.1,19.2,37.6,40.4,37.6c21.2,0,38.9-16.5,40.4-37.6c0-0.1,0-0.1,0-0.2c0.1-1,0.1-1.9,0.1-2.7v0c0-12-5.3-23.4-14.6-31.1
			c-3.4-2.8-7.1-5.1-11.2-6.6c0,0.8-0.1,1.7-0.3,2.5c0,0,0.1,0,0.1,0.1h0c0.2,0.1,0.4,0.2,0.6,0.2c0,0,0.1,0,0.1,0c0,0,0,0,0,0
			c0,0,0,0,0,0c0,0,0,0,0,0c0,0,0,0,0,0c0,0,0,0,0,0c0,0,0,0,0,0c0,0,0,0,0,0c0,0,0,0,0,0s0,0,0,0c0,0,0,0,0,0c0,0,0,0,0,0l0,0
			c0,0,0,0,0,0c0,0,0,0,0,0c0,0,0,0,0,0s0,0,0,0c0,0,0,0,0,0h0c0,0,0,0,0,0c0,0,0,0,0,0c0,0,0,0,0,0c0,0,0,0,0,0
			c1,0.4,2,0.9,2.9,1.5v0c0,0,0,0,0,0c11.9,6.5,19.5,19,19.7,32.6c0,0.2,0,0.5,0,0.8c0,21-17.1,38.1-38.1,38.1
			c-21,0-38.1-17.1-38.1-38.1l0,0c0-13.9,7.6-26.7,19.7-33.3c0,0,0,0,0,0c0,0,0,0,0,0c1-0.5,2-1,3-1.5h0c0,0,0,0,0,0c0.1,0,0,0,0,0
			s0,0,0,0h0c0,0,0,0,0,0s0,0,0,0h0c0,0,0,0,0,0l0,0c0,0,0,0,0,0c0,0,0,0,0,0l0,0c0,0,0,0,0,0c0,0,0,0,0,0h0c0,0,0,0,0,0
			c0,0,0,0,0,0s0,0,0,0c0,0,0,0,0,0c0,0,0,0,0,0c0.3-0.1,0.5-0.2,0.8-0.3c-0.2-0.8-0.3-1.7-0.3-2.5c-4.1,1.6-7.8,3.8-11.2,6.6
			c-5.1,4.3-9,9.6-11.5,15.6c-2,4.8-3.1,10.1-3.1,15.5v0c0,0.8,0,1.7,0.1,2.7C29.9,86.7,29.9,86.8,29.9,86.9L29.9,86.9z M36.7,91
			c3.3,15.6,17.1,27.3,33.6,27.3c16.5,0,30.4-11.7,33.6-27.3c-5.8,0.9-12,0.6-17.8-0.8c-10.4-2.6-21.3-2.6-31.7,0
			C48.7,91.6,42.5,91.9,36.7,91L36.7,91z M70.3,84.5c5.6,0,11.3,0.7,16.7,2.1c5.7,1.4,11.8,1.6,17.5,0.6c0.1-1.1,0.2-2.2,0.2-3.2
			c0-8.7-3.3-16.9-8.9-23.1c-5.3,8.9-15,14.5-25.4,14.5c-10.4,0-20.2-5.6-25.4-14.5C39.3,67,36,75.1,36,83.7c0,0.1,0,0.2,0,0.3
			c0,1,0.1,2.1,0.2,3.2c5.7,1,11.8,0.8,17.5-0.6C59.1,85.2,64.7,84.5,70.3,84.5L70.3,84.5z M114.5,83.9L114.5,83.9
			c14.4-7,23.1-22.4,22.3-40.1c-1-22-16-38.5-36.5-40C95.8,3.5,91.3,3.9,86.9,5C75.9,7.8,64.5,7.8,54,5.1c-4.7-1.2-6.8-1.6-11.4-1.2
			C21.4,5.4,4.7,22.6,3.8,43.8C3,61.5,11.6,76.9,26.1,83.9c0-12.8,5.5-24.8,15.1-33.2c-0.3-1.6-0.4-3.3-0.4-5
			c0-16.3,13.3-29.6,29.6-29.6c16.3,0,29.6,13.3,29.6,29.6c0,1.7-0.1,3.3-0.4,5c4.7,4.1,8.3,9,10.9,14.5c2.7,5.7,4.1,12,4.2,18.5
			C114.5,83.7,114.5,83.8,114.5,83.9L114.5,83.9z M47.6,58.2c4.5,8.2,13.3,13.5,22.7,13.5c9.4,0,18.2-5.2,22.7-13.5
			c-2.1-1.8-4.3-3.4-6.7-4.6c0,0,0,0,0,0c-0.7-0.4-1.4-0.7-2.1-1c0,0,0,0,0,0c0,0,0,0,0,0c0,0,0,0,0,0s0,0,0,0c0,0,0,0,0,0
			c0,0,0,0,0,0c0,0,0,0,0,0c0,0,0,0,0,0c0,0,0,0,0,0c0,0,0,0,0,0c0,0,0,0,0,0l0,0l0,0l0,0c-0.2-0.1-0.3-0.1-0.5-0.2
			c-2.4,5-7.5,8.3-13.2,8.3c-5.7,0-10.8-3.3-13.2-8.3c0,0,0,0-0.1,0c0,0-0.1,0-0.1,0.1c-0.1,0-0.2,0.1-0.3,0.1c0,0,0,0,0,0
			c0,0,0,0,0,0c0,0,0,0,0,0c0,0,0,0,0,0c0,0,0,0,0,0c0,0,0,0,0,0c0,0,0,0,0,0c0,0,0,0,0,0c0,0,0,0,0,0c0,0,0,0,0,0c0,0,0,0,0,0l0,0
			c0,0,0,0,0,0c0,0,0,0,0,0c0,0,0,0,0,0c0,0,0,0,0,0c0,0,0,0,0,0c0,0,0,0,0,0c0,0,0,0,0,0c-0.8,0.3-1.5,0.7-2.3,1.1
			C51.8,54.9,49.6,56.4,47.6,58.2L47.6,58.2z M59.9,49.3c1.5,4.5,5.7,7.5,10.5,7.5c4.7,0,8.9-3,10.5-7.5v0c0.4-1.1,0.6-2.3,0.6-3.5
			c0-0.6-0.1-1.2-0.2-1.9c0,0,0,0,0-0.1c-0.9-5.3-5.5-9.1-10.8-9.1c-5.3,0-9.8,3.7-10.8,8.9c0,0.1,0,0.3-0.1,0.4
			c-0.1,0.5-0.1,1-0.1,1.5c0,0,0,0,0,0c0,0.1,0,0.1,0,0.2C59.3,46.9,59.5,48.1,59.9,49.3C59.9,49.3,59.9,49.3,59.9,49.3L59.9,49.3z
			 M70.3,19.9c-14.3,0-25.9,11.6-25.9,25.9c0,0.7,0,1.5,0.1,2.2c3.5-2.5,7.4-4.5,11.5-5.9C57.7,35.6,63.5,31,70.3,31
			c6.8,0,12.6,4.6,14.3,11.1c4.1,1.4,8,3.4,11.5,5.9c0.1-0.7,0.1-1.5,0.1-2.2C96.2,31.5,84.6,19.9,70.3,19.9L70.3,19.9z M70.3,19.9"
			/>
	</g>
</g>
</svg>