<!-- Generator: Adobe Illustrator 18.0.0, SVG Export Plug-In  -->
<svg version="1.1"
	 xmlns="http://www.w3.org/2000/svg" xmlns:xlink="http://www.w3.org/1999/xlink" xmlns:a="http://ns.adobe.com/AdobeSVGViewerExtensions/3.0/"
	 x="0px" y="0px" width="69.2px" height="69.2px" viewBox="0 0 69.2 69.2" enable-background="new 0 0 69.2 69.2"
	 xml:space="preserve">
<defs>
</defs>
<g>
	<path fill="#FFFFFF" d="M26,38.1l-2.8,8.3h-3.5l9-26.5h4.1l9,26.5h-3.7l-2.8-8.3H26z M34.7,35.4l-2.6-7.6c-0.6-1.7-1-3.3-1.4-4.8
		h-0.1c-0.4,1.6-0.8,3.2-1.3,4.8l-2.6,7.7H34.7z"/>
	<path fill="#FFFFFF" d="M49.4,22.1c0,1.2-0.8,2.1-2.2,2.1c-1.2,0-2.1-0.9-2.1-2.1c0-1.2,0.9-2.2,2.2-2.2
		C48.6,19.9,49.4,20.9,49.4,22.1z M45.6,46.4v-19H49v19H45.6z"/>
</g>
<circle fill="none" stroke="#FFFFFF" stroke-width="2.8346" stroke-miterlimit="10" cx="34.6" cy="34.6" r="33.2"/>
</svg>