<!-- Generator: Adobe Illustrator 18.0.0, SVG Export Plug-In  -->
<svg version="1.1"
	 xmlns="http://www.w3.org/2000/svg" xmlns:xlink="http://www.w3.org/1999/xlink" xmlns:a="http://ns.adobe.com/AdobeSVGViewerExtensions/3.0/"
	 x="0px" y="0px" width="69.2px" height="69.2px" viewBox="0 0 69.2 69.2" enable-background="new 0 0 69.2 69.2"
	 xml:space="preserve">
<defs>
</defs>
<g>
	<path fill="#FFFFFF" d="M20.5,20.3c1.6-0.3,3.8-0.5,6.6-0.5c3.4,0,5.9,0.8,7.4,2.2c1.5,1.3,2.3,3.2,2.3,5.5c0,2.4-0.7,4.3-2,5.7
		c-1.8,1.9-4.8,2.9-8.1,2.9c-1,0-2,0-2.8-0.2v10.6h-3.4V20.3z M23.9,33c0.7,0.2,1.7,0.3,2.8,0.3c4.1,0,6.6-2,6.6-5.7
		c0-3.5-2.5-5.2-6.2-5.2c-1.5,0-2.6,0.1-3.2,0.3V33z"/>
	<path fill="#FFFFFF" d="M40,42.9c1,0.7,2.8,1.4,4.6,1.4c2.5,0,3.7-1.3,3.7-2.8c0-1.6-1-2.6-3.5-3.5c-3.4-1.2-5-3.1-5-5.4
		c0-3.1,2.5-5.6,6.6-5.6c1.9,0,3.6,0.6,4.7,1.2L50,30.7c-0.7-0.5-2.1-1.1-3.9-1.1c-2,0-3.2,1.2-3.2,2.6c0,1.6,1.1,2.3,3.6,3.2
		c3.3,1.3,5,2.9,5,5.7c0,3.3-2.6,5.7-7.1,5.7c-2.1,0-4-0.5-5.3-1.3L40,42.9z"/>
</g>
<circle fill="none" stroke="#FFFFFF" stroke-width="2.8346" stroke-miterlimit="10" cx="34.6" cy="34.6" r="33.2"/>
</svg>