<!-- Generator: Adobe Illustrator 18.0.0, SVG Export Plug-In  -->
<svg version="1.1"
	 xmlns="http://www.w3.org/2000/svg" xmlns:xlink="http://www.w3.org/1999/xlink" xmlns:a="http://ns.adobe.com/AdobeSVGViewerExtensions/3.0/"
	 x="0px" y="0px" width="69.2px" height="69.2px" viewBox="0 0 69.2 69.2" enable-background="new 0 0 69.2 69.2"
	 xml:space="preserve">
<defs>
</defs>
<circle fill="none" stroke="#FFFFFF" stroke-width="2.8346" stroke-miterlimit="10" cx="34.6" cy="34.6" r="33.2"/>
<g>
	<path fill="#FFFFFF" d="M22.4,30v-6.4c0-0.9,0.7-1.6,1.6-1.6c0.9,0,1.6-0.7,1.6-1.6c0-0.9-0.7-1.6-1.6-1.6c-2.6,0-4.8,2.2-4.8,4.8
		V30c0,1.8-1.4,3.2-3.2,3.2c-0.9,0-1.6,0.7-1.6,1.6c0,0.9,0.7,1.6,1.6,1.6c1.8,0,3.2,1.4,3.2,3.2V46c0,2.6,2.1,4.8,4.8,4.8
		c0.9,0,1.6-0.7,1.6-1.6c0-0.9-0.7-1.6-1.6-1.6c-0.9,0-1.6-0.7-1.6-1.6v-6.4c0-1.9-0.9-3.6-2.2-4.8C21.5,33.6,22.4,31.9,22.4,30
		L22.4,30z M22.4,30"/>
	<path fill="#FFFFFF" d="M47.7,39.6V46c0,0.9-0.7,1.6-1.6,1.6c-0.9,0-1.6,0.7-1.6,1.6c0,0.9,0.7,1.6,1.6,1.6c2.6,0,4.8-2.2,4.8-4.8
		v-6.4c0-1.8,1.4-3.2,3.2-3.2c0.9,0,1.6-0.7,1.6-1.6c0-0.9-0.7-1.6-1.6-1.6c-1.8,0-3.2-1.4-3.2-3.2v-6.4c0-2.6-2.1-4.8-4.8-4.8
		c-0.9,0-1.6,0.7-1.6,1.6c0,0.9,0.7,1.6,1.6,1.6c0.9,0,1.6,0.7,1.6,1.6V30c0,1.9,0.9,3.6,2.2,4.8C48.6,35.9,47.7,37.6,47.7,39.6
		L47.7,39.6z M47.7,39.6"/>
	<path fill="#FFFFFF" d="M37.6,29.2c0,1.3-1.1,2.4-2.4,2.4c-1.3,0-2.4-1.1-2.4-2.4c0-1.3,1.1-2.4,2.4-2.4
		C36.5,26.8,37.6,27.8,37.6,29.2L37.6,29.2z M37.6,29.2"/>
	<path fill="#FFFFFF" d="M35.2,38c-0.9,0-1.6,0.7-1.6,1.6v4.8c0,0.9,0.7,1.6,1.6,1.6c0.9,0,1.6-0.7,1.6-1.6v-4.8
		C36.8,38.7,36.1,38,35.2,38L35.2,38z M35.2,38"/>
</g>
</svg>