<!-- Generator: Adobe Illustrator 18.0.0, SVG Export Plug-In  -->
<svg version="1.1"
	 xmlns="http://www.w3.org/2000/svg" xmlns:xlink="http://www.w3.org/1999/xlink" xmlns:a="http://ns.adobe.com/AdobeSVGViewerExtensions/3.0/"
	 x="0px" y="0px" width="351.6px" height="345.7px" viewBox="0 0 351.6 345.7" enable-background="new 0 0 351.6 345.7"
	 xml:space="preserve">
<defs>
</defs>
<path fill="#FFFFFF" d="M346.1,0H5.5C2.5,0,0,2.5,0,5.5V76v264.2c0,3,2.5,5.5,5.5,5.5h340.6c3,0,5.5-2.5,5.5-5.5V76V5.5
	C351.6,2.5,349.1,0,346.1,0z M340.6,11v59.5H11V11H340.6z M11,334.7V81.5h329.6v253.2H11z"/>
<path fill="#FFFFFF" d="M228.6,34.5h64.6c3,0,5.5-2.5,5.5-5.5s-2.5-5.5-5.5-5.5h-64.6c-3,0-5.5,2.5-5.5,5.5S225.6,34.5,228.6,34.5z"
	/>
<path fill="#FFFFFF" d="M310.8,34.5h11.7c3,0,5.5-2.5,5.5-5.5s-2.5-5.5-5.5-5.5h-11.7c-3,0-5.5,2.5-5.5,5.5S307.8,34.5,310.8,34.5z"
	/>
<path fill="#FFFFFF" d="M181.7,63.9c12.7,0,23.1-10.4,23.1-23.1s-10.4-23.1-23.1-23.1S158.5,28,158.5,40.7S168.9,63.9,181.7,63.9z
	 M181.7,28.6c6.7,0,12.1,5.4,12.1,12.1s-5.4,12.1-12.1,12.1c-6.7,0-12.1-5.4-12.1-12.1S175,28.6,181.7,28.6z"/>
<path fill="#FFFFFF" d="M117.1,63.9c12.7,0,23.1-10.4,23.1-23.1s-10.4-23.1-23.1-23.1S93.9,28,93.9,40.7S104.3,63.9,117.1,63.9z
	 M117.1,28.6c6.7,0,12.1,5.4,12.1,12.1s-5.4,12.1-12.1,12.1c-6.7,0-12.1-5.4-12.1-12.1S110.4,28.6,117.1,28.6z"/>
<path fill="#FFFFFF" d="M52.5,63.9c12.7,0,23.1-10.4,23.1-23.1S65.2,17.6,52.5,17.6S29.4,28,29.4,40.7S39.7,63.9,52.5,63.9z
	 M52.5,28.6c6.7,0,12.1,5.4,12.1,12.1s-5.4,12.1-12.1,12.1s-12.1-5.4-12.1-12.1S45.8,28.6,52.5,28.6z"/>
<path fill="#FFFFFF" d="M116,156.4c0.1-4.4-1.5-8.6-4.5-11.8c-3-3.2-7.1-5-11.5-5.2c-4.4-0.1-8.6,1.5-11.8,4.5l-55.8,52.8
	c-3.3,3.2-5.2,7.6-5.2,12.2c0.1,4.6,2.1,9,5.5,12.1L88.4,271c3,2.7,6.9,4.2,11,4.2h0c4.7,0,9.2-2,12.3-5.5
	c6.1-6.8,5.5-17.2-1.3-23.3l-42.4-38l42.8-40.5C114,164.9,115.8,160.8,116,156.4z M103.2,160l-47.1,44.6c-1.1,1.1-1.7,2.5-1.7,4.1
	c0,1.5,0.7,3,1.8,4l46.9,41.9c2.3,2,2.5,5.5,0.4,7.8c-1.1,1.2-2.5,1.8-4.1,1.8c-1.4,0-2.7-0.5-3.7-1.4L40,212.9
	c-1.1-1-1.8-2.5-1.8-4c0-1.5,0.6-3,1.7-4.1L95.7,152c1-1,2.4-1.5,3.8-1.5c0.1,0,0.1,0,0.2,0c1.5,0,2.8,0.6,3.8,1.7
	c1,1.1,1.5,2.5,1.5,3.9C104.9,157.6,104.3,159,103.2,160z"/>
<path fill="#FFFFFF" d="M319.3,196.8L263.5,144c-6.6-6.3-17.1-6-23.3,0.6c-6.3,6.6-6,17.1,0.6,23.3l42.8,40.5l-42.4,38
	c-6.8,6.1-7.4,16.5-1.3,23.3c3.1,3.5,7.6,5.5,12.3,5.5h0c4.1,0,8-1.5,11-4.2l55.8-49.9c3.4-3.1,5.4-7.5,5.5-12.1
	C324.5,204.4,322.6,200,319.3,196.8z M313.4,208.9c0,1.5-0.7,3-1.8,4l-55.8,49.9c-1,0.9-2.3,1.4-3.7,1.4h0c-1.6,0-3-0.7-4.1-1.8
	c-2-2.3-1.8-5.7,0.4-7.8l46.9-41.9c1.1-1,1.8-2.5,1.8-4c0-1.5-0.6-3-1.7-4.1L248.3,160c-2.2-2.1-2.3-5.6-0.2-7.8
	c1.1-1.1,2.5-1.7,4-1.7c1.4,0,2.7,0.5,3.8,1.5l55.8,52.8C312.8,205.9,313.4,207.4,313.4,208.9L313.4,208.9L313.4,208.9z"/>
<path fill="#FFFFFF" d="M210.5,147.5L210.5,147.5c-7.9-4.5-18-1.8-22.6,6.1l-55.8,96.9c-4.5,7.9-1.8,18,6.1,22.6
	c2.5,1.4,5.4,2.2,8.2,2.2c5.9,0,11.4-3.2,14.3-8.3l55.8-96.9c2.2-3.8,2.8-8.3,1.6-12.5C217,153.3,214.3,149.7,210.5,147.5z
	 M207,164.6l-55.8,96.9c-1,1.7-2.8,2.8-4.8,2.8c-1,0-1.9-0.2-2.7-0.7c-2.6-1.5-3.5-4.9-2-7.5l55.8-96.9c1-1.8,2.9-2.8,4.8-2.8
	c0.9,0,1.9,0.2,2.7,0.7c1.3,0.7,2.2,1.9,2.6,3.3C207.9,161.8,207.7,163.3,207,164.6z"/>
</svg>