<!-- Generator: Adobe Illustrator 18.0.0, SVG Export Plug-In  -->
<svg version="1.1"
	 xmlns="http://www.w3.org/2000/svg" xmlns:xlink="http://www.w3.org/1999/xlink" xmlns:a="http://ns.adobe.com/AdobeSVGViewerExtensions/3.0/"
	 x="0px" y="0px" width="69.2px" height="69.2px" viewBox="0 0 69.2 69.2" enable-background="new 0 0 69.2 69.2"
	 xml:space="preserve">
<defs>
</defs>
<g>
	<path fill="#FFFFFF" d="M21,38.1l-2.8,8.3h-3.5l9-26.5h4.1l9,26.5h-3.7l-2.8-8.3H21z M29.6,35.4l-2.6-7.6c-0.6-1.7-1-3.3-1.4-4.8
		h-0.1c-0.4,1.6-0.8,3.2-1.3,4.8l-2.6,7.7H29.6z"/>
	<path fill="#FFFFFF" d="M42.1,37.6c0.1,4.7,3.1,6.6,6.5,6.6c2.5,0,4-0.4,5.3-1l0.6,2.5c-1.2,0.5-3.3,1.2-6.3,1.2
		c-5.9,0-9.4-3.9-9.4-9.6c0-5.7,3.4-10.3,8.9-10.3c6.2,0,7.9,5.5,7.9,9c0,0.7-0.1,1.3-0.1,1.6H42.1z M52.2,35.1
		c0-2.2-0.9-5.6-4.8-5.6c-3.5,0-5,3.2-5.3,5.6H52.2z"/>
</g>
<circle fill="none" stroke="#FFFFFF" stroke-width="2.8346" stroke-miterlimit="10" cx="34.6" cy="34.6" r="33.2"/>
</svg>