<!-- Generator: Adobe Illustrator 18.0.0, SVG Export Plug-In  -->
<svg version="1.1"
	 xmlns="http://www.w3.org/2000/svg" xmlns:xlink="http://www.w3.org/1999/xlink" xmlns:a="http://ns.adobe.com/AdobeSVGViewerExtensions/3.0/"
	 x="0px" y="0px" width="257.7px" height="194.2px" viewBox="0 0 257.7 194.2" enable-background="new 0 0 257.7 194.2"
	 xml:space="preserve">
<defs>
</defs>
<path fill="#FFFFFF" d="M226.3,194.2h-195C14.1,194.2,0,180.2,0,162.9V31.3C0,14.1,14.1,0,31.3,0h195c17.3,0,31.3,14.1,31.3,31.3
	v131.5C257.7,180.2,243.6,194.2,226.3,194.2z M31.3,10.5c-11.5,0-20.8,9.3-20.8,20.8v131.5c0,11.5,9.3,20.8,20.8,20.8h195
	c11.5,0,20.8-9.3,20.8-20.8V31.3c0-11.5-9.3-20.8-20.8-20.8H31.3z"/>
<path fill="#FFFFFF" d="M104.4,150.7c-2,0-3.9-0.5-5.6-1.4c-4-2.1-6.5-6.2-6.5-10.8V55.7c0-4.5,2.5-8.7,6.5-10.8
	c1.7-0.9,3.7-1.4,5.6-1.4c2.5,0,4.9,0.7,6.9,2.2l59.8,41.4c3.3,2.3,5.2,6,5.2,10c0,4-2,7.7-5.2,10l-59.8,41.4
	C109.3,149.9,106.9,150.7,104.4,150.7z M104.4,54c-0.3,0-0.5,0.1-0.8,0.2c-0.5,0.3-0.9,0.8-0.9,1.5v82.8c0,0.6,0.3,1.2,0.9,1.5
	c0.5,0.3,1.2,0.2,1.7-0.1l59.8-41.4c0.4-0.3,0.7-0.8,0.7-1.4c0-0.5-0.3-1-0.7-1.4l-59.8-41.4C105,54.1,104.7,54,104.4,54z"/>
<path fill="#FFFFFF" d="M226.1,172.3h-2.4c-2.9,0-5.3-2.4-5.3-5.3s2.4-5.3,5.3-5.3h2.4c2.9,0,5.3,2.4,5.3,5.3S229,172.3,226.1,172.3
	z"/>
<path fill="#FFFFFF" d="M206.8,172.3h-51.1c-2.9,0-5.3-2.4-5.3-5.3s2.4-5.3,5.3-5.3h51.1c2.9,0,5.3,2.4,5.3,5.3
	S209.7,172.3,206.8,172.3z"/>
</svg>