<!-- Generator: Adobe Illustrator 18.0.0, SVG Export Plug-In  -->
<svg version="1.1"
	 xmlns="http://www.w3.org/2000/svg" xmlns:xlink="http://www.w3.org/1999/xlink" xmlns:a="http://ns.adobe.com/AdobeSVGViewerExtensions/3.0/"
	 x="0px" y="0px" width="134.1px" height="144.9px" viewBox="0 0 134.1 144.9" enable-background="new 0 0 134.1 144.9"
	 xml:space="preserve">
<defs>
</defs>
<path fill="#FFFFFF" d="M67.1,21.5c-25.2,0-45.6,20.5-45.6,45.6c0,19.1,11.8,36,29.5,42.7v24.4c0,1.5,1.2,2.7,2.7,2.7h2.7v5.4
	c0,1.5,1.2,2.7,2.7,2.7h16.1c1.5,0,2.7-1.2,2.7-2.7v-5.4h2.7c1.5,0,2.7-1.2,2.7-2.7v-24.4c17.7-6.7,29.5-23.6,29.5-42.7
	C112.7,41.9,92.2,21.5,67.1,21.5L67.1,21.5z M75.1,131.5c-1.5,0-2.7,1.2-2.7,2.7v5.4H61.7v-5.4c0-1.5-1.2-2.7-2.7-2.7h-2.7V118h21.5
	v13.4H75.1z M79.6,105.3c-1.1,0.4-1.8,1.4-1.8,2.5v4.9H56.3v-4.9c0-1.2-0.7-2.2-1.8-2.5c-16.5-5.4-27.7-20.8-27.7-38.2
	c0-22.2,18.1-40.2,40.2-40.2c22.2,0,40.2,18.1,40.2,40.2C107.3,84.5,96.2,99.8,79.6,105.3L79.6,105.3z M79.6,105.3"/>
<path fill="#FFFFFF" d="M67.1,16.1c1.5,0,2.7-1.2,2.7-2.7V2.7c0-1.5-1.2-2.7-2.7-2.7c-1.5,0-2.7,1.2-2.7,2.7v10.7
	C64.4,14.9,65.6,16.1,67.1,16.1L67.1,16.1z M67.1,16.1"/>
<path fill="#FFFFFF" d="M131.5,64.4h-10.7c-1.5,0-2.7,1.2-2.7,2.7c0,1.5,1.2,2.7,2.7,2.7h10.7c1.5,0,2.7-1.2,2.7-2.7
	C134.1,65.6,132.9,64.4,131.5,64.4L131.5,64.4z M131.5,64.4"/>
<path fill="#FFFFFF" d="M13.4,64.4H2.7c-1.5,0-2.7,1.2-2.7,2.7c0,1.5,1.2,2.7,2.7,2.7h10.7c1.5,0,2.7-1.2,2.7-2.7
	C16.1,65.6,14.9,64.4,13.4,64.4L13.4,64.4z M13.4,64.4"/>
<path fill="#FFFFFF" d="M110.7,19.6l-7.6,7.6c-1,1-1,2.7,0,3.8c0.5,0.5,1.2,0.8,1.9,0.8c0.7,0,1.4-0.3,1.9-0.8l7.6-7.6
	c1.1-1,1.1-2.7,0-3.8C113.4,18.6,111.8,18.6,110.7,19.6L110.7,19.6z M110.7,19.6"/>
<path fill="#FFFFFF" d="M27.2,103.1l-7.6,7.6c-1.1,1-1.1,2.7,0,3.8c0.5,0.5,1.2,0.8,1.9,0.8c0.7,0,1.4-0.3,1.9-0.8l7.6-7.6
	c1-1,1-2.7,0-3.8C30,102.1,28.3,102.1,27.2,103.1L27.2,103.1z M27.2,103.1"/>
<path fill="#FFFFFF" d="M106.9,103.1c-1-1-2.7-1-3.8,0c-1,1-1,2.7,0,3.8l7.6,7.6c0.5,0.5,1.2,0.8,1.9,0.8c0.7,0,1.4-0.3,1.9-0.8
	c1.1-1,1.1-2.7,0-3.8L106.9,103.1z M106.9,103.1"/>
<path fill="#FFFFFF" d="M27.2,31c0.5,0.5,1.2,0.8,1.9,0.8c0.7,0,1.4-0.3,1.9-0.8c1-1,1-2.7,0-3.8l-7.6-7.6c-1-1.1-2.7-1.1-3.8,0
	c-1.1,1-1.1,2.7,0,3.8L27.2,31z M27.2,31"/>
<path fill="#FFFFFF" d="M67.1,34.9c-17.7,0-32.2,14.5-32.2,32.2c0,1.5,1.2,2.7,2.7,2.7c1.5,0,2.7-1.2,2.7-2.7
	c0-14.8,12-26.8,26.8-26.8c1.5,0,2.7-1.2,2.7-2.7C69.8,36.1,68.5,34.9,67.1,34.9L67.1,34.9z M67.1,34.9"/>
</svg>