<!-- Generator: Adobe Illustrator 18.0.0, SVG Export Plug-In  -->
<svg version="1.1"
	 xmlns="http://www.w3.org/2000/svg" xmlns:xlink="http://www.w3.org/1999/xlink" xmlns:a="http://ns.adobe.com/AdobeSVGViewerExtensions/3.0/"
	 x="0px" y="0px" width="69.2px" height="69.2px" viewBox="0 0 69.2 69.2" enable-background="new 0 0 69.2 69.2"
	 xml:space="preserve">
<defs>
</defs>
<circle fill="none" stroke="#FFFFFF" stroke-width="2.8346" stroke-miterlimit="10" cx="34.6" cy="34.6" r="33.2"/>
<g>
	<path fill="#FFFFFF" d="M57.8,32.9c-1.7,0-3-1.4-3-3v-4.4c0-3.2-2.6-5.8-5.8-5.8h-1.5c-0.8,0-1.4,0.6-1.4,1.4
		c0,0.8,0.6,1.4,1.4,1.4H49c1.7,0,3,1.4,3,3v4.4c0,1.8,0.8,3.3,2,4.4c-1.2,1.1-2,2.6-2,4.4V43c0,1.7-1.4,3-3,3h-1.5
		c-0.8,0-1.4,0.6-1.4,1.4c0,0.8,0.6,1.4,1.4,1.4H49c3.2,0,5.8-2.6,5.8-5.8v-4.4c0-1.7,1.4-3,3-3c0.8,0,1.4-0.6,1.4-1.4
		C59.1,33.5,58.5,32.9,57.8,32.9L57.8,32.9z M57.8,32.9"/>
	<path fill="#FFFFFF" d="M19.6,29.9v-4.4c0-1.7,1.4-3,3-3h1.5c0.8,0,1.4-0.6,1.4-1.4c0-0.8-0.6-1.4-1.4-1.4h-1.5
		c-3.2,0-5.8,2.6-5.8,5.8v4.4c0,1.7-1.4,3-3,3c-0.8,0-1.4,0.6-1.4,1.4c0,0.8,0.6,1.4,1.4,1.4c1.7,0,3,1.4,3,3V43
		c0,3.2,2.6,5.8,5.8,5.8h1.5c0.8,0,1.4-0.6,1.4-1.4c0-0.8-0.6-1.4-1.4-1.4h-1.5c-1.7,0-3-1.4-3-3v-4.4c0-1.8-0.8-3.3-2-4.4
		C18.8,33.2,19.6,31.6,19.6,29.9L19.6,29.9z M19.6,29.9"/>
	<path fill="#FFFFFF" d="M43.1,40.2c-0.4,0-0.7,0.1-1,0.4c-0.3,0.3-0.4,0.6-0.4,1c0,0.4,0.1,0.7,0.4,1c0.3,0.3,0.6,0.4,1,0.4
		c0.4,0,0.7-0.1,1-0.4c0.3-0.3,0.4-0.6,0.4-1c0-0.4-0.1-0.7-0.4-1C43.8,40.3,43.5,40.2,43.1,40.2L43.1,40.2z M43.1,40.2"/>
	<path fill="#FFFFFF" d="M35.8,40.2c-0.4,0-0.7,0.1-1,0.4c-0.3,0.3-0.4,0.6-0.4,1c0,0.4,0.1,0.7,0.4,1c0.3,0.3,0.6,0.4,1,0.4
		c0.4,0,0.7-0.1,1-0.4c0.3-0.3,0.4-0.6,0.4-1c0-0.4-0.1-0.7-0.4-1C36.5,40.3,36.2,40.2,35.8,40.2L35.8,40.2z M35.8,40.2"/>
	<path fill="#FFFFFF" d="M28.5,40.2c-0.4,0-0.7,0.1-1,0.4c-0.3,0.3-0.4,0.6-0.4,1c0,0.4,0.1,0.7,0.4,1c0.3,0.3,0.6,0.4,1,0.4
		c0.4,0,0.7-0.1,1-0.4c0.3-0.3,0.4-0.6,0.4-1c0-0.4-0.1-0.7-0.4-1C29.2,40.3,28.8,40.2,28.5,40.2L28.5,40.2z M28.5,40.2"/>
</g>
</svg>