<!-- Generator: Adobe Illustrator 18.0.0, SVG Export Plug-In  -->
<svg version="1.1"
	 xmlns="http://www.w3.org/2000/svg" xmlns:xlink="http://www.w3.org/1999/xlink" xmlns:a="http://ns.adobe.com/AdobeSVGViewerExtensions/3.0/"
	 x="0px" y="0px" width="106.6px" height="130px" viewBox="0 0 106.6 130" enable-background="new 0 0 106.6 130"
	 xml:space="preserve">
<defs>
</defs>
<g>
	<path fill="#010101" d="M51.4,114.4c0.4,0.7,1.1,1.2,1.9,1.2c0.8,0,1.5-0.4,1.9-1.2L73,78.7c0.2-0.4,0.3-0.8,0.2-1.3l-5.5-35.4
		l3.5-39.8c0.1-0.6-0.1-1.2-0.5-1.6S69.7,0,69.1,0H38.4c-0.6,0-1.1,0.2-1.5,0.7c-0.4,0.4-0.6,1-0.6,1.6l2.9,39
		c-0.1,0.2-0.1,0.4-0.2,0.6l-5.6,35.6c-0.1,0.4,0,0.9,0.2,1.3L51.4,114.4z M53.3,73.5c-3.1,0-5.7-2.6-5.7-5.7s2.6-5.7,5.7-5.7
		c3.1,0,5.7,2.6,5.7,5.7S56.5,73.5,53.3,73.5z M66.8,4.2l-3.2,35.9H43.3L40.6,4.2H66.8z M42.8,44.3h20.9L69,77.5l-13.6,27.1V77.4
		c4.4-1,7.8-4.9,7.8-9.7c0-5.4-4.4-9.9-9.9-9.9s-9.9,4.4-9.9,9.9c0,4.7,3.3,8.7,7.8,9.7v27.2L37.7,77.5L42.8,44.3z"/>
	<path fill="#010101" d="M94.5,114.7H83.4c-1.2,0-2.1,0.9-2.1,2.1v3.5h-56v-3.5c0-1.2-0.9-2.1-2.1-2.1H12.1c-1.2,0-2.1,0.9-2.1,2.1
		v11.1c0,1.2,0.9,2.1,2.1,2.1h11.1c1.2,0,2.1-0.9,2.1-2.1v-3.5h56v3.5c0,1.2,0.9,2.1,2.1,2.1h11.1c1.2,0,2.1-0.9,2.1-2.1v-11.1
		C96.6,115.6,95.7,114.7,94.5,114.7z M21.2,125.8h-7v-7h7V125.8z M92.4,125.8h-7v-7h7V125.8z"/>
	<path fill="#010101" d="M53.3,120c29.4,0,53.3-23.9,53.3-53.3c0-1.2-0.9-2.1-2.1-2.1c-1.2,0-2.1,0.9-2.1,2.1
		c0,27.1-22,49.1-49.1,49.1S4.2,93.8,4.2,66.7c0-1.2-0.9-2.1-2.1-2.1S0,65.5,0,66.7C0,96.1,23.9,120,53.3,120z"/>
</g>
</svg>