<!-- Generator: Adobe Illustrator 18.0.0, SVG Export Plug-In  -->
<svg version="1.1"
	 xmlns="http://www.w3.org/2000/svg" xmlns:xlink="http://www.w3.org/1999/xlink" xmlns:a="http://ns.adobe.com/AdobeSVGViewerExtensions/3.0/"
	 x="0px" y="0px" width="70.9px" height="135px" viewBox="0 0 70.9 135" enable-background="new 0 0 70.9 135" xml:space="preserve"
	>
<defs>
</defs>
<g>
	<path fill="#231F20" d="M61.4,67.2c2.2-24.1-6.3-48.7-23.9-66.4c-1.1-1.1-3-1.1-4.1,0C15.7,18.5,7.3,43.1,9.5,67.2
		C3.4,73.8,0,82.3,0,91.3c0,9.1,3.5,17.8,9.8,24.4c1.5,1.6,5.5,0.9,4.8-2.7c-0.3-1.9-0.7-3.7-0.7-5.5c0-4.5,1.3-8.7,3.9-12.3
		c0.4,0.2,0.9,0.4,1.4,0.4h32.6c0.5,0,1-0.1,1.4-0.4c2.5,3.6,3.9,7.8,3.9,12.3c0,1.8-0.5,3.6-0.7,5.5c-0.6,4,3.6,4.1,4.8,2.7
		c6.3-6.6,9.8-15.3,9.8-24.4C70.9,82.3,67.5,73.8,61.4,67.2L61.4,67.2z M35.4,7c5.1,5.5,9.3,11.7,12.6,18.3H22.9
		C26.1,18.7,30.3,12.5,35.4,7L35.4,7z M8.4,103.7c-1.8-3.8-2.7-8-2.7-12.3c0-5.8,1.7-11.4,4.8-16.2c0,0.2,3,11.7,4.2,14.7
		C11.3,93.7,9.1,98.5,8.4,103.7L8.4,103.7z M49.9,89.9H21c-8.1-19-8-40.2-0.7-58.9h30.2C57.9,49.6,58,70.9,49.9,89.9L49.9,89.9z
		 M56.1,89.8c1.6-4.1,4.2-14.5,4.2-14.7c3.1,4.8,4.8,10.4,4.8,16.2c0,4.3-0.9,8.5-2.7,12.3C61.7,98.5,59.5,93.7,56.1,89.8L56.1,89.8
		z M56.1,89.8"/>
	<path fill="#231F20" d="M23.8,100.4c-1.6,0-2.9,1.3-2.9,2.9v14.4c0,1.6,1.3,2.9,2.9,2.9c1.6,0,2.9-1.3,2.9-2.9v-14.4
		C26.7,101.7,25.4,100.4,23.8,100.4L23.8,100.4z M23.8,100.4"/>
	<path fill="#231F20" d="M35.4,100.4c-0.8,0-1.5,0.3-2,0.9l0,0c-0.3,0.3-0.6,0.8-0.7,1.3c-0.1,0.2-0.1,0.5-0.1,0.8v28.8
		c0,0.2,0,0.4,0.1,0.7c0.3,1.3,1.4,2.2,2.8,2.2c1.3,0,2.5-0.9,2.8-2.2c0.1-0.2,0.1-0.4,0.1-0.7v-28.8c0-0.3,0-0.5-0.1-0.8
		C37.9,101.3,36.7,100.4,35.4,100.4L35.4,100.4z M35.4,100.4"/>
	<path fill="#231F20" d="M47,100.4c-1.6,0-2.9,1.3-2.9,2.9v14.4c0,1.6,1.3,2.9,2.9,2.9c1.6,0,2.9-1.3,2.9-2.9v-14.4
		C49.9,101.7,48.6,100.4,47,100.4L47,100.4z M47,100.4"/>
</g>
</svg>