<!-- Generator: Adobe Illustrator 18.0.0, SVG Export Plug-In  -->
<svg version="1.1"
	 xmlns="http://www.w3.org/2000/svg" xmlns:xlink="http://www.w3.org/1999/xlink" xmlns:a="http://ns.adobe.com/AdobeSVGViewerExtensions/3.0/"
	 x="0px" y="0px" width="69.2px" height="69.2px" viewBox="0 0 69.2 69.2" enable-background="new 0 0 69.2 69.2"
	 xml:space="preserve">
<defs>
</defs>
<circle fill="none" stroke="#FFFFFF" stroke-width="2.8346" stroke-miterlimit="10" cx="34.6" cy="34.6" r="33.2"/>
<g>
	<path fill="#FFFFFF" d="M58.8,32.5L46.5,21.6c-0.7-0.6-1.7-0.5-2.3,0.1c-0.6,0.7-0.5,1.7,0.1,2.3l10.9,9.7l-10.9,9.7
		c-0.7,0.6-0.7,1.6-0.1,2.3c0.3,0.4,0.8,0.5,1.2,0.5c0.4,0,0.8-0.1,1.1-0.4l12.3-10.9c0.3-0.3,0.5-0.7,0.5-1.2S59.1,32.8,58.8,32.5z
		"/>
	<path fill="#FFFFFF" d="M26.8,21.7c-0.6-0.7-1.6-0.7-2.3-0.1L12.2,32.5c-0.3,0.3-0.5,0.7-0.5,1.2s0.2,0.9,0.5,1.2l12.3,10.9
		c0.3,0.3,0.7,0.4,1.1,0.4c0.4,0,0.9-0.2,1.2-0.5c0.6-0.7,0.5-1.7-0.1-2.3l-10.9-9.7L26.7,24C27.4,23.4,27.4,22.4,26.8,21.7z"/>
	<path fill="#FFFFFF" d="M39.4,20.8c-0.9-0.3-1.8,0.2-2,1.1l-6.8,22.5c-0.3,0.9,0.2,1.8,1.1,2c0.2,0,0.3,0.1,0.5,0.1
		c0.7,0,1.3-0.5,1.6-1.2l6.8-22.5C40.7,22,40.2,21,39.4,20.8z"/>
</g>
</svg>