<!-- Generator: Adobe Illustrator 18.0.0, SVG Export Plug-In  -->
<svg version="1.1"
	 xmlns="http://www.w3.org/2000/svg" xmlns:xlink="http://www.w3.org/1999/xlink" xmlns:a="http://ns.adobe.com/AdobeSVGViewerExtensions/3.0/"
	 x="0px" y="0px" width="113.5px" height="105.9px" viewBox="0 0 113.5 105.9" enable-background="new 0 0 113.5 105.9"
	 xml:space="preserve">
<defs>
</defs>
<g>
	<path d="M79.9,94.6c-1-0.3-2,0.4-2.3,1.4l-1.9,7.6c-0.3,1,0.4,2,1.4,2.3c0.2,0,0.3,0.1,0.5,0.1c0.8,0,1.6-0.6,1.8-1.4l1.9-7.6
		C81.5,95.9,80.9,94.9,79.9,94.6L79.9,94.6z M79.9,94.6"/>
	<path d="M56.7,56.7c0.2,0,0.5,0,0.7-0.1L78.3,48c1-0.4,1.4-1.5,1-2.5c-0.4-1-1.5-1.4-2.5-1l-20.1,8.3l-53-21.9v-0.6
		c0-1-0.8-1.9-1.9-1.9c-1,0-1.9,0.8-1.9,1.9v1.9c0,0.8,0.5,1.5,1.2,1.7L56,56.6C56.2,56.7,56.5,56.7,56.7,56.7L56.7,56.7z
		 M56.7,56.7"/>
	<path d="M79.2,76.1c-0.5-0.9-1.6-1.3-2.5-0.9c-3.6,1.8-9.6,3.8-18.1,4.1v-17c0-1-0.8-1.9-1.9-1.9c-1,0-1.9,0.8-1.9,1.9v17
		c-23.5-0.7-31.1-15-32.2-17.3V49.2c0-1-0.8-1.9-1.9-1.9c-1,0-1.9,0.8-1.9,1.9v13.2c0,0.2,0,0.5,0.1,0.7c0.3,0.8,8.4,20.1,37.7,20.1
		c10.2,0,17.4-2.5,21.6-4.6C79.3,78.2,79.7,77.1,79.2,76.1L79.2,76.1z M79.2,76.1"/>
	<path d="M85.1,96.5c-1,0-1.9,0.8-1.9,1.9v5.7c0,1,0.8,1.9,1.9,1.9c1,0,1.9-0.8,1.9-1.9v-5.7C87,97.3,86.2,96.5,85.1,96.5L85.1,96.5
		z M85.1,96.5"/>
	<path d="M111.6,28.4c-1,0-1.9,0.8-1.9,1.9v0.6L87,40.2v-3.4l25.3-10.5c0.7-0.3,1.2-1,1.2-1.7c0-0.8-0.5-1.5-1.2-1.7L57.5,0.1
		C57,0,56.5,0,56,0.1L1.2,22.8c-0.7,0.3-1.2,1-1.2,1.7c0,0.8,0.5,1.5,1.2,1.7L56,49c0.2,0.1,0.5,0.1,0.7,0.1c0.2,0,0.5,0,0.7-0.1
		l19.8-8.2c1-0.4,1.4-1.5,1-2.5c-0.4-1-1.5-1.4-2.5-1l-19.1,7.9L6.8,24.6L56.7,3.9l49.9,20.7l-21.7,9l-20.8-7.8
		c0.1-0.4,0.2-0.8,0.2-1.2c0-3.2-3.3-5.7-7.6-5.7c-4.2,0-7.6,2.5-7.6,5.7c0,3.2,3.3,5.7,7.6,5.7c1.9,0,3.6-0.5,4.9-1.3L83.2,37v46.6
		c-2.2,0.8-3.8,2.9-3.8,5.3c0,3.1,2.5,5.7,5.7,5.7c3.1,0,5.7-2.5,5.7-5.7c0-2.5-1.6-4.5-3.8-5.3V72.8c5.4-4.1,7.4-9.6,7.5-9.8
		c0.1-0.2,0.1-0.4,0.1-0.6V49.2c0-1-0.8-1.9-1.9-1.9c-1,0-1.9,0.8-1.9,1.9v12.9c-0.3,0.8-1.5,3.3-3.8,5.7V44.3l25.3-10.4
		c0.7-0.3,1.2-1,1.2-1.8v-1.9C113.5,29.2,112.6,28.4,111.6,28.4L111.6,28.4z M56.7,26.5c-2.3,0-3.8-1.1-3.8-1.9
		c0-0.8,1.5-1.9,3.8-1.9s3.8,1.1,3.8,1.9C60.5,25.4,59.1,26.5,56.7,26.5L56.7,26.5z M85.1,90.8c-1,0-1.9-0.8-1.9-1.9
		s0.8-1.9,1.9-1.9c1,0,1.9,0.8,1.9,1.9S86.2,90.8,85.1,90.8L85.1,90.8z M85.1,90.8"/>
	<path d="M92.6,96c-0.3-1-1.3-1.6-2.3-1.4c-1,0.3-1.6,1.3-1.4,2.3l1.9,7.6c0.2,0.9,1,1.4,1.8,1.4c0.2,0,0.3,0,0.5-0.1
		c1-0.3,1.6-1.3,1.4-2.3L92.6,96z M92.6,96"/>
</g>
</svg>