<!-- Generator: Adobe Illustrator 18.0.0, SVG Export Plug-In  -->
<svg version="1.1"
	 xmlns="http://www.w3.org/2000/svg" xmlns:xlink="http://www.w3.org/1999/xlink" xmlns:a="http://ns.adobe.com/AdobeSVGViewerExtensions/3.0/"
	 x="0px" y="0px" width="130.1px" height="125.6px" viewBox="0 0 130.1 125.6" enable-background="new 0 0 130.1 125.6"
	 xml:space="preserve">
<defs>
</defs>
<g>
	<path fill="#010101" d="M127.1,31.8h-23.5V25c0-13.8-11.2-25-25-25H51.5c-13.8,0-25,11.2-25,25v6.7H3c-1.7,0-3,1.4-3,3v78.5
		c0,6.8,5.5,12.3,12.3,12.3h105.6c6.8,0,12.3-5.5,12.3-12.3V34.8C130.1,33.1,128.8,31.8,127.1,31.8z M32.5,25c0-10.5,8.5-19,19-19
		h27.1c10.5,0,19,8.5,19,19v6.7h-6.1V25c0-7.1-5.8-12.9-12.9-12.9H51.5c-7.1,0-12.9,5.8-12.9,12.9v6.7h-6.1V25z M44.6,31.8V25
		c0-3.8,3.1-6.9,6.9-6.9h27.1c3.8,0,6.9,3.1,6.9,6.9v6.7H44.6z M122.3,37.8l-17.8,36.8c-1.2,2.5-3.3,4.5-5.7,5.8v-1.9
		c0-3.5-2.8-6.3-6.3-6.3h-7c-3.5,0-6.3,2.8-6.3,6.3v3.3h-28v-3.3c0-3.5-2.8-6.3-6.3-6.3h-7c-3.5,0-6.3,2.8-6.3,6.3v1.9
		c-2.4-1.2-4.5-3.2-5.7-5.8L7.9,37.8H122.3z M92.7,78.4V93c0,0.1-0.1,0.3-0.3,0.3h-7c-0.1,0-0.3-0.1-0.3-0.3V78.4
		c0-0.1,0.1-0.3,0.3-0.3h7C92.6,78.2,92.7,78.3,92.7,78.4z M45,78.4V93c0,0.1-0.1,0.3-0.3,0.3h-7c-0.1,0-0.3-0.1-0.3-0.3V78.4
		c0-0.1,0.1-0.3,0.3-0.3h7C44.9,78.2,45,78.3,45,78.4z M117.9,119.5H12.3c-3.4,0-6.2-2.8-6.2-6.2V48l14.2,29.3
		c2.3,4.6,6.4,8.1,11.2,9.6V93c0,3.5,2.8,6.3,6.3,6.3h7c3.5,0,6.3-2.8,6.3-6.3v-5.3h28V93c0,3.5,2.8,6.3,6.3,6.3h7
		c3.5,0,6.3-2.8,6.3-6.3v-6.1c4.8-1.5,8.9-5,11.2-9.6L124.1,48v65.4C124.1,116.8,121.3,119.5,117.9,119.5z"/>
	<path fill="#010101" d="M114.8,107.4h-3.2c-1.7,0-3,1.4-3,3s1.4,3,3,3h3.2c1.7,0,3-1.4,3-3S116.5,107.4,114.8,107.4z"/>
	<path fill="#010101" d="M77.9,107.4H72c-1.7,0-3,1.4-3,3s1.4,3,3,3h5.9c1.7,0,3-1.4,3-3S79.6,107.4,77.9,107.4z"/>
	<path fill="#010101" d="M97.7,107.4h-5.9c-1.7,0-3,1.4-3,3s1.4,3,3,3h5.9c1.7,0,3-1.4,3-3S99.4,107.4,97.7,107.4z"/>
	<path fill="#010101" d="M58.1,107.4h-5.9c-1.7,0-3,1.4-3,3s1.4,3,3,3h5.9c1.7,0,3-1.4,3-3S59.8,107.4,58.1,107.4z"/>
	<path fill="#010101" d="M38.3,107.4h-5.9c-1.7,0-3,1.4-3,3s1.4,3,3,3h5.9c1.7,0,3-1.4,3-3S39.9,107.4,38.3,107.4z"/>
	<path fill="#010101" d="M18.5,107.4h-3.2c-1.7,0-3,1.4-3,3s1.4,3,3,3h3.2c1.7,0,3-1.4,3-3S20.1,107.4,18.5,107.4z"/>
	<path fill="#010101" d="M28.4,46.9c0-1.7-1.4-3-3-3h-3.2c-1.7,0-3,1.4-3,3c0,1.7,1.4,3,3,3h3.2C27.1,49.9,28.4,48.6,28.4,46.9z"/>
	<path fill="#010101" d="M83.3,49.9h6.3c1.7,0,3-1.4,3-3c0-1.7-1.4-3-3-3h-6.3c-1.7,0-3,1.4-3,3C80.3,48.6,81.6,49.9,83.3,49.9z"/>
	<path fill="#010101" d="M61.9,49.9h6.3c1.7,0,3-1.4,3-3c0-1.7-1.4-3-3-3h-6.3c-1.7,0-3,1.4-3,3C58.9,48.6,60.2,49.9,61.9,49.9z"/>
	<path fill="#010101" d="M40.5,49.9h6.3c1.7,0,3-1.4,3-3c0-1.7-1.4-3-3-3h-6.3c-1.7,0-3,1.4-3,3C37.5,48.6,38.8,49.9,40.5,49.9z"/>
	<path fill="#010101" d="M104.7,49.9h3.2c1.7,0,3-1.4,3-3c0-1.7-1.4-3-3-3h-3.2c-1.7,0-3,1.4-3,3C101.7,48.6,103,49.9,104.7,49.9z"
		/>
</g>
</svg>