<!-- Generator: Adobe Illustrator 18.0.0, SVG Export Plug-In  -->
<svg version="1.1"
	 xmlns="http://www.w3.org/2000/svg" xmlns:xlink="http://www.w3.org/1999/xlink" xmlns:a="http://ns.adobe.com/AdobeSVGViewerExtensions/3.0/"
	 x="0px" y="0px" width="69.2px" height="69.2px" viewBox="0 0 69.2 69.2" enable-background="new 0 0 69.2 69.2"
	 xml:space="preserve">
<defs>
</defs>
<circle fill="none" stroke="#FFFFFF" stroke-width="2.8346" stroke-miterlimit="10" cx="34.6" cy="34.6" r="33.2"/>
<path fill="#FFFFFF" d="M52.7,45.9l-2.8-16.1c0,0,0,0,0,0l-0.9-5.4c-0.1-0.3-0.2-0.6-0.5-0.7c-0.2-0.1-0.4-0.2-0.7-0.1L29,26.9
	l17.8-6.5c0.5-0.2,0.8-0.8,0.6-1.3L45.6,14c-0.1-0.3-0.3-0.5-0.5-0.6c-0.2-0.1-0.5-0.1-0.8,0L15.5,23.8c-0.5,0.2-0.8,0.8-0.6,1.3
	l1.8,5l0.9,5.3l2.8,16.1c0,0.3,0.2,0.5,0.4,0.7c0.2,0.1,0.4,0.2,0.6,0.2c0.1,0,0.1,0,0.2,0l30.2-5.3c0.3,0,0.5-0.2,0.7-0.4
	C52.7,46.4,52.7,46.2,52.7,45.9L52.7,45.9z M47.7,29.1l-3.8,0.7L46,26l1.1-0.2L47.7,29.1z M18.9,30.7l3.8-0.7l-2.1,3.8l-1.1,0.2
	L18.9,30.7z M27.4,21.7L26,25.8l-4.1,1.5l1.4-4.1L27.4,21.7z M34,19.3l-1.4,4.1l-4.1,1.5l1.4-4.1L34,19.3z M40.6,16.9L39.2,21
	L35,22.5l1.4-4.1L40.6,16.9z M25.3,29.6l4.3-0.8l-2.1,3.8l-4.3,0.8L25.3,29.6z M32.2,28.4l4.3-0.8l-2.1,3.8l-4.3,0.8L32.2,28.4z
	 M39.1,27.2l4.3-0.8l-2.1,3.8L37,31L39.1,27.2z M45.2,18.8l-3.6,1.3L43,16l1-0.4L45.2,18.8z M20.8,24.1l-1.4,4.1l-1.1,0.4l-1.2-3.2
	L20.8,24.1z M22.4,50.2l-2.5-14.1l28.1-5l2.5,14.1L22.4,50.2z M22.4,50.2"/>
<rect x="14.9" y="13.3" fill="none" width="37.9" height="39.2"/>
</svg>