<!-- Generator: Adobe Illustrator 18.0.0, SVG Export Plug-In  -->
<svg version="1.1"
	 xmlns="http://www.w3.org/2000/svg" xmlns:xlink="http://www.w3.org/1999/xlink" xmlns:a="http://ns.adobe.com/AdobeSVGViewerExtensions/3.0/"
	 x="0px" y="0px" width="108.4px" height="109px" viewBox="0 0 108.4 109" enable-background="new 0 0 108.4 109"
	 xml:space="preserve">
<defs>
</defs>
<g>
	<g>
		<defs>
			<rect id="SVGID_1_" x="0" y="0" width="108.4" height="109"/>
		</defs>
		<clipPath id="SVGID_2_">
			<use xlink:href="#SVGID_1_"  overflow="visible"/>
		</clipPath>
		<path clip-path="url(#SVGID_2_)" d="M106.9,31.9L76.7,1.7c-1-1-2.3-1.5-3.7-1.5c-1.4,0-2.7,0.5-3.7,1.5c-1,1-1.5,2.3-1.5,3.7
			c0,1.2,0.4,2.3,1.1,3.2L6.4,71.3c-8.5,8.5-8.5,22.5,0,31c4.1,4.1,9.6,6.4,15.5,6.4c5.9,0,11.4-2.3,15.5-6.4L100,39.7
			c0.9,0.7,2,1.1,3.2,1.1c1.4,0,2.7-0.5,3.7-1.5C109,37.2,109,34,106.9,31.9L106.9,31.9z M104.5,36.8c-0.3,0.3-0.8,0.5-1.2,0.5
			c-0.5,0-0.9-0.2-1.2-0.5l-0.5-0.5c-0.1-0.1-0.1-0.2-0.2-0.3c-0.1-0.1-0.2-0.2-0.3-0.2L82.5,17.2c-0.7-0.7-1.8-0.7-2.4,0
			c-0.7,0.7-0.7,1.8,0,2.4l17.5,17.5L35,99.8c-3.5,3.5-8.1,5.4-13.1,5.4s-9.6-1.9-13.1-5.4c-7.2-7.2-7.2-18.9,0-26.1l62.6-62.6
			l3.7,3.7c0.7,0.7,1.8,0.7,2.4,0c0.7-0.7,0.7-1.8,0-2.4l-4.7-4.6c-0.1-0.1-0.1-0.2-0.2-0.3c-0.1-0.1-0.2-0.2-0.3-0.2l-0.6-0.5
			c-0.3-0.3-0.5-0.8-0.5-1.2c0-0.5,0.2-0.9,0.5-1.2c0.3-0.3,0.8-0.5,1.2-0.5c0.5,0,0.9,0.2,1.2,0.5l30.2,30.2
			C105.2,35.1,105.2,36.2,104.5,36.8L104.5,36.8z M104.5,36.8"/>
	</g>
	<path d="M64.1,63.3c-1.6-1.6-3-1.8-4.1-2c-0.9-0.2-1.5-0.3-2.2-1c-0.8-0.8-0.9-1.3-1.1-2.2c-0.2-1.1-0.5-2.5-2-4.1
		c-1.6-1.6-3-1.8-4.1-2c-0.9-0.2-1.5-0.3-2.2-1.1c-0.8-0.8-0.9-1.3-1-2.2c-0.2-1.1-0.5-2.5-2-4.1c-0.3-0.3-0.8-0.5-1.2-0.5
		c-0.5,0-0.9,0.2-1.2,0.5L29.5,57.9c-0.7,0.7-0.7,1.8,0,2.4c0.7,0.7,1.8,0.7,2.4,0l11.8-11.8c0.1,0.2,0.1,0.4,0.1,0.7
		c0.2,1.1,0.5,2.5,2,4.1c1.6,1.6,3,1.8,4.1,2c0.9,0.2,1.5,0.3,2.2,1.1c0.8,0.8,0.9,1.3,1,2.2c0.2,1.1,0.5,2.5,2,4.1
		c1.6,1.6,3,1.8,4.1,2c0.3,0,0.5,0.1,0.7,0.1L30.1,94.9c-2.2,2.2-5.1,3.4-8.2,3.4c-3.1,0-6-1.2-8.2-3.4c-4.5-4.5-4.5-11.8,0-16.3
		l13.3-13.3c0.7-0.7,0.7-1.8,0-2.4c-0.7-0.7-1.8-0.7-2.4,0L11.3,76.2c-5.8,5.8-5.8,15.4,0,21.2c2.8,2.8,6.6,4.4,10.6,4.4
		s7.8-1.6,10.6-4.4L64,65.9C65,64.9,64.6,63.8,64.1,63.3C64.2,63.4,64.1,63.3,64.1,63.3L64.1,63.3z M64.1,63.3"/>
	<path d="M78.2,37.4c-0.7,0.7-0.7,1.8,0,2.4c0.7,0.7,0.7,1.8,0,2.4c-0.3,0.3-0.8,0.5-1.2,0.5c-0.5,0-0.9-0.2-1.2-0.5
		c-0.7-0.7-0.7-1.8,0-2.4c0.7-0.7,0.7-1.8,0-2.4c-0.7-0.7-1.8-0.7-2.4,0c-2,2-2,5.3,0,7.3c1,1,2.3,1.5,3.7,1.5
		c1.4,0,2.7-0.5,3.7-1.5c2-2,2-5.3,0-7.3C80,36.8,78.9,36.8,78.2,37.4L78.2,37.4z M78.2,37.4"/>
	<path d="M57.8,46.7c1.4,0,2.7-0.5,3.7-1.5c1-1,1.5-2.3,1.5-3.7c0-1.4-0.5-2.7-1.5-3.7c-0.7-0.7-1.8-0.7-2.4,0
		c-0.7,0.7-0.7,1.8,0,2.4c0.3,0.3,0.5,0.8,0.5,1.2c0,0.5-0.2,0.9-0.5,1.2c-0.3,0.3-0.8,0.5-1.2,0.5s-0.9-0.2-1.2-0.5
		c-0.3-0.3-0.5-0.8-0.5-1.2c0-0.5,0.2-0.9,0.5-1.2c0.7-0.7,0.7-1.8,0-2.4c-0.7-0.7-1.8-0.7-2.4,0c-2,2-2,5.3,0,7.3
		C55.1,46.2,56.4,46.7,57.8,46.7L57.8,46.7z M57.8,46.7"/>
</g>
</svg>