<!-- Generator: Adobe Illustrator 18.0.0, SVG Export Plug-In  -->
<svg version="1.1"
	 xmlns="http://www.w3.org/2000/svg" xmlns:xlink="http://www.w3.org/1999/xlink" xmlns:a="http://ns.adobe.com/AdobeSVGViewerExtensions/3.0/"
	 x="0px" y="0px" width="427.1px" height="481.4px" viewBox="0 0 427.1 481.4" enable-background="new 0 0 427.1 481.4"
	 xml:space="preserve">
<defs>
</defs>
<path fill="#FFFFFF" d="M93.2,194.1c-34.3,0-62.1,27.9-62.1,62.1s27.9,62.1,62.1,62.1s62.1-27.9,62.1-62.1S127.4,194.1,93.2,194.1z
	 M93.2,302.8c-25.7,0-46.6-20.9-46.6-46.6s20.9-46.6,46.6-46.6s46.6,20.9,46.6,46.6S118.9,302.8,93.2,302.8z"/>
<path fill="#FFFFFF" d="M147.5,124.2c34.3,0,62.1-27.9,62.1-62.1S181.8,0,147.5,0S85.4,27.9,85.4,62.1S113.3,124.2,147.5,124.2z
	 M147.5,15.5c25.7,0,46.6,20.9,46.6,46.6s-20.9,46.6-46.6,46.6s-46.6-20.9-46.6-46.6S121.8,15.5,147.5,15.5z"/>
<path fill="#FFFFFF" d="M396,279.5h-23.3v-69.9c0-21.4-17.4-38.8-38.8-38.8h-17.6c1.3-5,2-10.2,2-15.5c0-34.3-27.9-62.1-62.1-62.1
	s-62.1,27.9-62.1,62.1c0,5.4,0.8,10.6,2,15.5H38.8C17.4,170.8,0,188.2,0,209.7V396c0,21.4,17.4,38.8,38.8,38.8h69.9v31.1H93.2v15.5
	h186.4v-15.5H264v-31.1h69.9c21.4,0,38.8-17.4,38.8-38.8v-38.9l8.9,0l14.4-4.8v12.5h31.1v-15.5h-15.5v-69.9h15.5V264H396V279.5z
	 M256.2,108.7c25.7,0,46.6,20.9,46.6,46.6s-20.9,46.6-46.6,46.6s-46.6-20.9-46.6-46.6S230.5,108.7,256.2,108.7z M248.5,465.9H124.2
	v-31.1h124.2V465.9z M333.9,419.3H38.8c-12.8,0-23.3-10.5-23.3-23.3v-7.8h341.7v7.8C357.2,408.8,346.7,419.3,333.9,419.3z
	 M357.2,372.7H15.5V209.7c0-12.8,10.5-23.3,23.3-23.3h163.7c10.8,18.5,30.8,31.1,53.7,31.1s43-12.5,53.7-31.1h23.9
	c12.8,0,23.3,10.5,23.3,23.3v68.4L338,265.3l-65.4-23.2c-6.2-2.2-12.9-1.7-18.8,1.2c-5.9,3-10.2,8.1-12.1,14.4
	c-3.3,10.9,1.6,22.8,11.7,28.1l16.8,8.9l-24.4,0.1l-10-25.1c-3.3-8.2-11.2-13.6-20-13.6c-6.9,0-13.5,3.4-17.5,9
	c-4,5.6-5.1,12.9-2.9,19.5l2.3,7l-17-9.3c-5.4-3-11.9-3.5-17.7-1.6c-5.9,2-10.7,6.3-13.2,12c-5,11-0.4,23.8,10.4,29.2l38.3,18.9
	l79.6,16.2l79.3,0.1V372.7z M215,295l-5.1-15.3c-0.6-1.9-0.3-3.9,0.8-5.5c2.6-3.6,8.9-2.9,10.5,1.3l7.8,19.4L215,295z M379.1,341.6
	h-98.9l-75.9-15.2L166.8,308c-3.3-1.6-4.7-5.5-3.2-8.9c0.8-1.7,2.2-3,4-3.6c1.8-0.6,3.7-0.4,5.4,0.5l26.7,14.6h73.7l30.6-15.3
	l-43.4-23.1c-3.6-1.9-5.3-6.1-4.1-9.9c0.7-2.2,2.2-4,4.3-5.1c2.1-1,4.4-1.2,6.6-0.4l62.8,22l24.4,16.3H396v41L379.1,341.6z"/>
</svg>