<!-- Generator: Adobe Illustrator 18.0.0, SVG Export Plug-In  -->
<svg version="1.1"
	 xmlns="http://www.w3.org/2000/svg" xmlns:xlink="http://www.w3.org/1999/xlink" xmlns:a="http://ns.adobe.com/AdobeSVGViewerExtensions/3.0/"
	 x="0px" y="0px" width="150.1px" height="152.5px" viewBox="0 0 150.1 152.5" enable-background="new 0 0 150.1 152.5"
	 xml:space="preserve">
<defs>
</defs>
<g transform="translate(1 1)">
	<path fill="#FFFFFF" d="M90.5,151.5H46.9c-2.9,0-5.5-1.6-6.8-4.2c-0.3-0.8-1.1-1.3-1.8-1.3l-33.4-2.4c-3.7-0.8-5.8-3.2-5.8-6.3
		c0-3.9,3.2-6.8,6.8-6.8h128c3.9,0,6.8,3.2,6.8,6.8c0,3.2-2.1,5.5-5.8,6.3h-0.3L98.9,146c-0.8,0-1.6,0.5-1.8,1.3
		C96,149.9,93.4,151.5,90.5,151.5z M5.6,138.3l32.9,2.4c2.6,0.3,5,1.8,6.3,4.2c0.5,0.8,1.3,1.3,2.1,1.3h43.9c0.8,0,1.6-0.5,2.1-1.3
		c1.3-2.4,3.7-3.9,6.3-4.2l35.2-2.4c1.3-0.3,1.3-0.8,1.3-1.1c0-0.8-0.8-1.6-1.6-1.6H5.8c-0.8,0-1.6,0.8-1.6,1.6
		C4.3,137.6,4.3,138.1,5.6,138.3z"/>
	<path fill="#FFFFFF" d="M70,46.3c-0.8,0-1.3-0.3-1.8-0.8c-3.9-4.2-6-8.4-6-12.6s2.1-8.2,6-12.1c2.9-2.6,4.5-5.5,4.5-8.4
		S71,6.6,68.1,3.5c-1.1-1.1-1.1-2.6,0-3.7s2.6-1.1,3.7,0c4.2,3.9,6,8.4,6,12.6s-2.1,8.4-6,12.1c-2.9,2.6-4.5,5.5-4.5,8.4
		s1.6,5.8,4.5,8.9c1.1,1.1,1.1,2.6,0,3.7C71.3,46.1,70.8,46.3,70,46.3z"/>
	<path fill="#FFFFFF" d="M98.9,46.3c-0.8,0-1.3-0.3-1.8-0.8c-3.9-4.2-6-8.4-6-12.6s2.1-8.2,6-12.1c2.9-2.9,4.5-5.5,4.5-8.4
		s-1.6-5.8-4.5-8.9c-1.1-1.1-1.1-2.6,0-3.7s2.6-1.1,3.7,0c4.2,3.9,6,8.2,6,12.6c0,4.2-2.1,8.4-6.3,12.1C97.6,27.1,96,30,96,32.9
		s1.6,5.8,4.5,8.9c1.1,1.1,1.1,2.6,0,3.7C100.2,46.1,99.4,46.3,98.9,46.3z"/>
	<path fill="#FFFFFF" d="M43.7,46.3c-0.8,0-1.3-0.3-1.8-0.8c-3.9-4.2-6-8.4-6-12.6s2.1-8.2,6-12.1c2.9-2.9,4.5-5.5,4.5-8.4
		s-1.6-5.8-4.5-8.9c-1.1-1.1-1.1-2.6,0-3.7c1.1-1.1,2.6-1.1,3.7,0c4.2,3.9,6,8.2,6,12.6c0,4.2-2.1,8.4-6.3,12.1
		c-2.9,2.6-4.5,5.5-4.5,8.4s1.6,5.8,4.5,8.9c1.1,1.1,1.1,2.6,0,3.7C45,46.1,44.2,46.3,43.7,46.3z"/>
	<path fill="#FFFFFF" d="M70,135.7c-57.3,0-65.5-37.1-65.7-73.6c0-1.3,0.5-2.6,1.6-3.7s2.4-1.6,3.7-1.6h120.9c1.3,0,2.6,0.5,3.7,1.6
		c1.1,1.1,1.6,2.4,1.6,3.7C135.5,98.6,127.3,135.7,70,135.7z M9.5,62.1c0.3,35.5,7.9,68.4,60.5,68.4s60.2-32.9,60.5-68.4H9.5z"/>
	<path fill="#FFFFFF" d="M113.6,117.8l4.2-5c10.8-13.4,12.6-32.6,12.9-48.1v-1.8l2.1-0.8h0.5c8.7,0,15.8,9.5,15.8,21
		c0,15-8.9,31.3-28.9,33.9L113.6,117.8z M135.7,67.9c-0.5,13.7-2.1,29.4-10,42.3c13.1-4.5,17.9-16.8,17.9-27.1
		C143.6,75.8,140.2,69.5,135.7,67.9z"/>
	<path fill="#FFFFFF" d="M54.2,122.6c-0.3,0-0.3,0-0.5,0c-20.8-3.7-32.1-15.5-36.3-38.9c-0.3-1.3,0.8-2.9,2.1-3.2
		c1.3-0.3,2.9,0.8,3.2,2.1c3.9,21,13.4,31.6,32.1,34.7c1.3,0.3,2.4,1.6,2.1,3.2C56.6,121.8,55.5,122.6,54.2,122.6z"/>
</g>
</svg>