<!-- Generator: Adobe Illustrator 18.0.0, SVG Export Plug-In  -->
<svg version="1.1"
	 xmlns="http://www.w3.org/2000/svg" xmlns:xlink="http://www.w3.org/1999/xlink" xmlns:a="http://ns.adobe.com/AdobeSVGViewerExtensions/3.0/"
	 x="0px" y="0px" width="637.8px" height="302.3px" viewBox="0 0 637.8 302.3" enable-background="new 0 0 637.8 302.3"
	 xml:space="preserve">
<defs>
</defs>
<path fill="#FFFFFF" d="M570.1,0c-37.3,0-67.7,30.4-67.7,67.7c0,13.6,4.1,26.3,11,36.9l-73.2,73.2c-10.6-6.9-23.3-11-36.9-11
	c-14.1,0-27.2,4.3-38.1,11.8l-73.9-73.9c6.9-10.6,11-23.3,11-36.9c0-37.3-30.4-67.7-67.7-67.7s-67.7,30.4-67.7,67.7
	c0,13.6,4.1,26.3,11,36.9l-73.2,73.2c-10.6-6.9-23.3-11-36.9-11C30.4,166.8,0,197.2,0,234.5s30.4,67.7,67.7,67.7
	s67.7-30.4,67.7-67.7c0-13.6-4.1-26.3-11-36.9l73.2-73.2c10.6,6.9,23.3,11,36.9,11c13.6,0,26.3-4.1,36.9-11l74.3,74.3
	c-6.5,10.4-10.2,22.6-10.2,35.8c0,37.3,30.4,67.7,67.7,67.7s67.7-30.4,67.7-67.7c0-13.6-4.1-26.3-11-36.9l73.2-73.2
	c10.6,6.9,23.3,11,36.9,11c37.3,0,67.7-30.4,67.7-67.7S607.4,0,570.1,0z M67.7,274.3c-21.9,0-39.7-17.8-39.7-39.7
	c0-21.9,17.8-39.7,39.7-39.7c21.9,0,39.7,17.8,39.7,39.7C107.5,256.4,89.6,274.3,67.7,274.3z M194.8,67.7
	c0-21.9,17.8-39.7,39.7-39.7s39.7,17.8,39.7,39.7s-17.8,39.7-39.7,39.7C212.6,107.4,194.8,89.6,194.8,67.7z M403.3,274.3
	c-21.9,0-39.7-17.8-39.7-39.7s17.8-39.7,39.7-39.7c21.9,0,39.7,17.8,39.7,39.7C443,256.4,425.2,274.3,403.3,274.3z M570.1,107.4
	c-21.9,0-39.7-17.8-39.7-39.7c0-21.9,17.8-39.7,39.7-39.7c21.9,0,39.7,17.8,39.7,39.7C609.8,89.6,592,107.4,570.1,107.4z"/>
<path fill="#FFFFFF" d="M200.4,172l-28.5,28.5c-5.5,5.5-5.5,14.3,0,19.8c2.7,2.7,6.3,4.1,9.9,4.1c3.6,0,7.2-1.4,9.9-4.1l28.5-28.5
	c5.5-5.5,5.5-14.3,0-19.8C214.7,166.5,205.9,166.5,200.4,172z"/>
<path fill="#FFFFFF" d="M427.5,134.9c3.6,0,7.2-1.4,9.9-4.1l28.5-28.5c5.5-5.5,5.5-14.3,0-19.8c-5.5-5.5-14.3-5.5-19.8,0L417.6,111
	c-5.5,5.5-5.5,14.3,0,19.8C420.3,133.5,423.9,134.9,427.5,134.9z"/>
</svg>