<!-- Generator: Adobe Illustrator 18.0.0, SVG Export Plug-In  -->
<svg version="1.1"
	 xmlns="http://www.w3.org/2000/svg" xmlns:xlink="http://www.w3.org/1999/xlink" xmlns:a="http://ns.adobe.com/AdobeSVGViewerExtensions/3.0/"
	 x="0px" y="0px" width="134.1px" height="150.5px" viewBox="0 0 134.1 150.5" enable-background="new 0 0 134.1 150.5"
	 xml:space="preserve">
<defs>
</defs>
<g>
	<path d="M67.1,23.9c-25.2,0-45.6,20.5-45.6,45.6c0,19.1,11.8,36,29.5,42.7v24.4c0,1.5,1.2,2.7,2.7,2.7h2.7v5.4
		c0,1.5,1.2,2.7,2.7,2.7h16.1c1.5,0,2.7-1.2,2.7-2.7v-5.4h2.7c1.5,0,2.7-1.2,2.7-2.7v-24.4c17.7-6.7,29.5-23.6,29.5-42.7
		C112.7,44.3,92.2,23.9,67.1,23.9L67.1,23.9z M75.1,133.9c-1.5,0-2.7,1.2-2.7,2.7v5.4H61.7v-5.4c0-1.5-1.2-2.7-2.7-2.7h-2.7v-13.4
		h21.5v13.4H75.1z M79.6,107.7c-1.1,0.4-1.8,1.4-1.8,2.5v4.9H56.3v-4.9c0-1.2-0.7-2.2-1.8-2.5c-16.5-5.4-27.7-20.8-27.7-38.2
		c0-22.2,18.1-40.2,40.2-40.2c22.2,0,40.2,18.1,40.2,40.2C107.3,86.9,96.2,102.2,79.6,107.7L79.6,107.7z M79.6,107.7"/>
	<g>
		<defs>
			<rect id="SVGID_1_" x="0" y="0" width="133.6" height="150.5"/>
		</defs>
		<clipPath id="SVGID_2_">
			<use xlink:href="#SVGID_1_"  overflow="visible"/>
		</clipPath>
		<path clip-path="url(#SVGID_2_)" d="M67.1,18.5c1.5,0,2.7-1.2,2.7-2.7V5.1c0-1.5-1.2-2.7-2.7-2.7c-1.5,0-2.7,1.2-2.7,2.7v10.7
			C64.4,17.3,65.6,18.5,67.1,18.5L67.1,18.5z M67.1,18.5"/>
		<path clip-path="url(#SVGID_2_)" d="M131.5,66.8h-10.7c-1.5,0-2.7,1.2-2.7,2.7c0,1.5,1.2,2.7,2.7,2.7h10.7c1.5,0,2.7-1.2,2.7-2.7
			C134.1,68,132.9,66.8,131.5,66.8L131.5,66.8z M131.5,66.8"/>
	</g>
	<path d="M13.4,66.8H2.7C1.2,66.8,0,68,0,69.5c0,1.5,1.2,2.7,2.7,2.7h10.7c1.5,0,2.7-1.2,2.7-2.7C16.1,68,14.9,66.8,13.4,66.8
		L13.4,66.8z M13.4,66.8"/>
	<path d="M110.7,22.1l-7.6,7.6c-1,1-1,2.7,0,3.8c0.5,0.5,1.2,0.8,1.9,0.8c0.7,0,1.4-0.3,1.9-0.8l7.6-7.6c1.1-1,1.1-2.7,0-3.8
		C113.4,21,111.8,21,110.7,22.1L110.7,22.1z M110.7,22.1"/>
	<path d="M27.2,105.5l-7.6,7.6c-1.1,1-1.1,2.7,0,3.8c0.5,0.5,1.2,0.8,1.9,0.8c0.7,0,1.4-0.3,1.9-0.8l7.6-7.6c1-1,1-2.7,0-3.8
		C30,104.5,28.3,104.5,27.2,105.5L27.2,105.5z M27.2,105.5"/>
	<path d="M106.9,105.5c-1-1-2.7-1-3.8,0c-1,1-1,2.7,0,3.8l7.6,7.6c0.5,0.5,1.2,0.8,1.9,0.8c0.7,0,1.4-0.3,1.9-0.8
		c1.1-1,1.1-2.7,0-3.8L106.9,105.5z M106.9,105.5"/>
	<path d="M27.2,33.4c0.5,0.5,1.2,0.8,1.9,0.8c0.7,0,1.4-0.3,1.9-0.8c1-1,1-2.7,0-3.8l-7.6-7.6c-1-1.1-2.7-1.1-3.8,0
		c-1.1,1-1.1,2.7,0,3.8L27.2,33.4z M27.2,33.4"/>
	<path d="M67.1,37.3c-17.7,0-32.2,14.5-32.2,32.2c0,1.5,1.2,2.7,2.7,2.7c1.5,0,2.7-1.2,2.7-2.7c0-14.8,12-26.8,26.8-26.8
		c1.5,0,2.7-1.2,2.7-2.7C69.8,38.5,68.5,37.3,67.1,37.3L67.1,37.3z M67.1,37.3"/>
</g>
</svg>