<!-- Generator: Adobe Illustrator 18.0.0, SVG Export Plug-In  -->
<svg version="1.1"
	 xmlns="http://www.w3.org/2000/svg" xmlns:xlink="http://www.w3.org/1999/xlink" xmlns:a="http://ns.adobe.com/AdobeSVGViewerExtensions/3.0/"
	 x="0px" y="0px" width="135.9px" height="135.9px" viewBox="0 0 135.9 135.9" enable-background="new 0 0 135.9 135.9"
	 xml:space="preserve">
<defs>
</defs>
<g>
	<path d="M38.5,36.2h27.2c1.3,0,2.3-1,2.3-2.3c0-1.2-1-2.3-2.3-2.3H38.5c-1.3,0-2.3,1-2.3,2.3C36.2,35.2,37.2,36.2,38.5,36.2
		L38.5,36.2z M38.5,36.2"/>
	<path d="M52.1,72.5H34c-1.3,0-2.3,1-2.3,2.3c0,1.3,1,2.3,2.3,2.3h18.1c1.3,0,2.3-1,2.3-2.3C54.3,73.5,53.3,72.5,52.1,72.5
		L52.1,72.5z M52.1,72.5"/>
	<path d="M45.3,61.1c0-1.3-1-2.3-2.3-2.3H29.4c-1.3,0-2.3,1-2.3,2.3c0,1.3,1,2.3,2.3,2.3H43C44.3,63.4,45.3,62.4,45.3,61.1
		L45.3,61.1z M45.3,61.1"/>
	<path d="M29.4,49.8h31.7c1.3,0,2.3-1,2.3-2.3c0-1.2-1-2.3-2.3-2.3H29.4c-1.3,0-2.3,1-2.3,2.3C27.2,48.8,28.2,49.8,29.4,49.8
		L29.4,49.8z M29.4,49.8"/>
	<path d="M70.2,72.5h-9.1c-1.3,0-2.3,1-2.3,2.3c0,1.3,1,2.3,2.3,2.3h9.1c1.3,0,2.3-1,2.3-2.3C72.5,73.5,71.5,72.5,70.2,72.5
		L70.2,72.5z M70.2,72.5"/>
	<path d="M102.5,89.7c-0.9,0.9-0.9,2.3,0,3.2l4.8,4.8c0.4,0.4,1,0.7,1.6,0.7c0.6,0,1.2-0.2,1.6-0.7c0.9-0.9,0.9-2.3,0-3.2l-4.8-4.8
		C104.8,88.8,103.4,88.8,102.5,89.7L102.5,89.7z M102.5,89.7"/>
	<path d="M132.6,116.5l-15.9-15.9c-0.4-0.4-1-0.7-1.6-0.7h0c-0.6,0-1.2,0.2-1.6,0.7l-6.4,6.4c-0.9,0.9-0.9,2.3,0,3.2
		c0.9,0.9,2.3,0.9,3.2,0l4.8-4.8l14.3,14.3c1.3,1.3,2,3,2,4.8c0,1.8-0.7,3.5-2,4.8c-2.6,2.6-7,2.7-9.6,0l-26.8-26.8
		c-0.9-0.9-2.3-0.9-3.2,0c-0.9,0.9-0.9,2.3,0,3.2l26.8,26.8c2.2,2.2,5.1,3.3,8,3.3c2.9,0,5.8-1.1,8-3.3c2.1-2.1,3.3-5,3.3-8
		C135.9,121.5,134.7,118.7,132.6,116.5L132.6,116.5z M132.6,116.5"/>
	<path d="M108.7,54.3c0-30-24.4-54.3-54.3-54.3S0,24.4,0,54.3s24.4,54.3,54.3,54.3S108.7,84.3,108.7,54.3L108.7,54.3z M54.3,104.2
		c-27.5,0-49.8-22.3-49.8-49.8c0-27.5,22.3-49.8,49.8-49.8c27.5,0,49.8,22.3,49.8,49.8C104.2,81.8,81.8,104.2,54.3,104.2L54.3,104.2
		z M54.3,104.2"/>
	<path d="M54.3,9.1c-25,0-45.3,20.3-45.3,45.3c0,25,20.3,45.3,45.3,45.3s45.3-20.3,45.3-45.3C99.6,29.4,79.3,9.1,54.3,9.1L54.3,9.1z
		 M54.3,95.1c-22.5,0-40.8-18.3-40.8-40.8s18.3-40.8,40.8-40.8s40.8,18.3,40.8,40.8S76.8,95.1,54.3,95.1L54.3,95.1z M54.3,95.1"/>
	<path d="M79.3,58.9H52.1c-1.3,0-2.3,1-2.3,2.3c0,1.2,1,2.3,2.3,2.3h27.2c1.3,0,2.3-1,2.3-2.3C81.5,59.9,80.5,58.9,79.3,58.9
		L79.3,58.9z M79.3,58.9"/>
	<path d="M79.3,45.3h-9.1c-1.3,0-2.3,1-2.3,2.3c0,1.3,1,2.3,2.3,2.3h9.1c1.3,0,2.3-1,2.3-2.3C81.5,46.3,80.5,45.3,79.3,45.3
		L79.3,45.3z M79.3,45.3"/>
</g>
</svg>