<!-- Generator: Adobe Illustrator 18.0.0, SVG Export Plug-In  -->
<svg version="1.1"
	 xmlns="http://www.w3.org/2000/svg" xmlns:xlink="http://www.w3.org/1999/xlink" xmlns:a="http://ns.adobe.com/AdobeSVGViewerExtensions/3.0/"
	 x="0px" y="0px" width="125px" height="120.8px" viewBox="0 0 125 120.8" enable-background="new 0 0 125 120.8"
	 xml:space="preserve">
<defs>
</defs>
<path fill="#FFFFFF" d="M125,57.7c0-9.6-7.8-17.4-17.4-17.4H80.6V20.8c0-8.2-2.4-14.1-7.1-17.6C66-2.3,55.7,0.9,55.3,1
	c-1.3,0.4-2.2,1.6-2.2,3v21.8c0,17.2-19.9,23-20.8,23.3c-0.3,0.1-0.5,0.2-0.7,0.3c-1.5-3-4.5-5-8.1-5H9c-4.9,0-9,4-9,9v53
	c0,4.9,4,9,9,9h8.4c1.7,0,3.1-1.4,3.1-3.1c0-1.7-1.4-3.1-3.1-3.1H9c-1.5,0-2.7-1.2-2.7-2.7v-53c0-1.5,1.2-2.7,2.7-2.7h14.6
	c1.5,0,2.7,1.2,2.7,2.7v50c0,9.6,7.8,17.4,17.4,17.4h53.4c11.8,0,19.4-6.2,20.7-16.9l7.2-45.1c0-0.2,0.1-0.3,0.1-0.5L125,57.7
	L125,57.7z M118.7,57.9l-7.2,45c-0.9,7.7-5.8,11.6-14.5,11.6H43.7c-6.1,0-11.2-5-11.2-11.2V55.1c0.5,0.1,0.9,0.1,1.4-0.1
	c1-0.3,25.3-7.3,25.3-29.3V6.5c2.7-0.4,7.2-0.6,10.5,1.8c3,2.2,4.6,6.5,4.6,12.6v22.5c0,1.7,1.4,3.1,3.1,3.1h30.1
	c6.1,0,11.2,5,11.2,11.2L118.7,57.9L118.7,57.9z M118.7,57.9"/>
</svg>