<!-- Generator: Adobe Illustrator 18.0.0, SVG Export Plug-In  -->
<svg version="1.1"
	 xmlns="http://www.w3.org/2000/svg" xmlns:xlink="http://www.w3.org/1999/xlink" xmlns:a="http://ns.adobe.com/AdobeSVGViewerExtensions/3.0/"
	 x="0px" y="0px" width="97.8px" height="97.8px" viewBox="0 0 97.8 97.8" enable-background="new 0 0 97.8 97.8"
	 xml:space="preserve">
<defs>
</defs>
<path fill="#FFFFFF" d="M84.8,1.6v3.5C66.7,8,50.2,15.8,36.9,27.7h-9.2c-0.9,0-1.6,0.7-1.6,1.6v9.3c-11,13-18.2,28.9-20.9,46.1H1.6
	c-0.9,0-1.6,0.7-1.6,1.6v9.8c0,0.9,0.7,1.6,1.6,1.6h9.8c0.9,0,1.6-0.7,1.6-1.6v-9.8c0-0.9-0.7-1.6-1.6-1.6h-3
	c2.7-16.5,9.6-31.6,20.1-44h8.9c0.9,0,1.6-0.7,1.6-1.6v-9C51.8,18.7,67.5,11.3,84.8,8.4v3c0,0.9,0.7,1.6,1.6,1.6h9.8
	c0.9,0,1.6-0.7,1.6-1.6V1.6c0-0.9-0.7-1.6-1.6-1.6h-9.8C85.5,0,84.8,0.7,84.8,1.6z M9.8,94.5H3.3V88h6.5V94.5z M35.9,37.5h-6.5V31
	h6.5V37.5z M94.5,9.8H88V3.3h6.5V9.8z"/>
</svg>